<svg xmlns="http://www.w3.org/2000/svg" fill="none" viewBox="0 0 114 111"><path fill="#3CA9FF" d="M23.25 72.62c3.97-.31 8.22-2.69 8.78-6.97.15-1.14 0-2.28-.3-3.38-.34-1.22-.92-2.41-1.8-3.34-1.58-1.66-3.87-2.08-6.06-1.71-2.16.37-4.2 1.39-5.94 2.71-1.24.94-2.38 1.99-3.6 2.93-.59.45-1.2.92-1.86 1.25-.67.34-1.38.4-2.11.22-.34-.09-.49.28-.37.54.01.04.04.08.07.12 2.01 2.43 4.03 4.99 6.88 6.47 1.92 1 4.16 1.33 6.31 1.16Zm6.63-4.14c-.3.26-.69.43-1.09.52.13-.3.27-.59.42-.88.31.08.64.11.96.06-.09.1-.18.2-.29.29v.01Zm-1.77-6.13c-.22.25-.42.52-.59.82-.45-.23-.96-.32-1.42-.53.27-.39.59-.75.94-1.07.34.28.76.47 1.07.78Zm-.75-1.05c.22-.17.45-.33.69-.48.17-.11.36-.2.55-.29.14.35.3.7.52 1.01-.26.14-.5.32-.72.52-.3-.3-.7-.5-1.04-.76Zm-.02 2.23c-.07.15-.12.3-.17.45-.56-.09-1.17.06-1.74.07 0-.02 0-.04.02-.05.11-.35.25-.69.43-1.01.47.22 1 .3 1.46.54Zm-.28.85v.02c-.06.29-.08.59-.07.89-.2.02-.4.05-.6.09-.33.06-.67.29-1.01.23-.05 0-.08 0-.12.01-.03-.39 0-.78.07-1.17.55 0 1.18-.17 1.73-.08v.01Zm-1.73 1.63c.37.07.68-.13 1.03-.21.22-.05.45-.09.68-.11.05.27.13.54.25.79-.01 0-.02.01-.03.02-.19.1-.39.19-.58.29-.32.16-.63.42-.97.54-.2-.42-.33-.86-.4-1.32h.02Zm1.4 1.2.48-.24c.07-.04.16-.1.25-.15.04.07.08.13.13.2.1.14.21.27.34.39-.19.18-.4.33-.56.53-.19.24-.36.49-.58.71-.36-.25-.66-.58-.89-.96.29-.12.55-.33.83-.47v-.01Zm.91 1.05c.18-.23.4-.4.61-.59.18.13.37.24.57.32-.18.36-.35.71-.51 1.08h-.2c-.35 0-.67-.09-.96-.22.17-.19.33-.39.49-.6v.01Zm3.63-4.41c-.06-.07-.14-.14-.21-.2-.36-.28-.72-.32-1.16-.32-.39 0-.82.3-1.05.6a1.568 1.568 0 0 0 .28 2.21c.36.28.72.32 1.16.32.31 0 .65-.2.89-.43-.05.23-.11.46-.18.68-.03.03-.05.07-.07.12-.06.13-.11.26-.17.39-.06 0-.13 0-.2.04-.91.46-1.88-.04-2.42-.81-.41-.59-.45-1.34-.31-2.02.29-1.36 1.54-2.6 2.97-2.58.24.64.4 1.31.47 1.99v.01Zm-1.46-3.74s.05-.02.08-.03c.22.31.41.64.57.97 0 .02.02.04.03.06-.35.03-.69.12-1.01.25 0-.02-.01-.03-.02-.05-.2-.29-.35-.62-.48-.95.27-.11.55-.2.83-.26v.01Zm-.65-.88.21.21c-2.53.75-4.78 2.9-4.87 5.66-.07 2.25 1.35 4.86 3.88 4.71-1.1.53-2.53.03-3.55-.55-.03-.02-.05-.04-.08-.06l-.05-.05v-.02c-.19-.25-.38-.51-.61-.73-.01-.03-.03-.06-.05-.09-.7-.91-.98-1.95-.9-3.09.08-1.02.48-1.98 1.04-2.84.58-.88 1.29-1.69 2.2-2.24.79-.48 1.7-.74 2.59-.99.08.02.15.04.22.07l-.03.01Zm-6.86-.85c.96-.33 1.97-.52 2.97-.55 1.03-.02 2.06.21 2.97.71.04.02.07.04.1.06-.18.05-.36.11-.54.17-.65.08-1.28.19-1.89.41-1.27.47-2.33 1.36-3.26 2.32-.75.78-1.4 1.64-2.1 2.46-.36.42-.75.83-1.18 1.18-.31.25-.72.55-1.14.51-.65-.31-1.3-.62-1.98-.87a7.71 7.71 0 0 1-.26-.09c.62-.35 1.13-.88 1.62-1.39.62-.65 1.14-1.39 1.67-2.1.54-.73 1.1-1.41 1.81-1.98.38-.3.79-.58 1.2-.84h.01Zm-2.61 7.97c-.07-.03-.13-.06-.2-.09.04 0 .09.01.14.02.02.02.04.05.06.07Zm-5-2.82c1.4-1.06 2.69-2.28 4.11-3.31.56-.41 1.17-.78 1.8-1.11-.55.47-1.01 1.02-1.46 1.6-.52.69-1.02 1.39-1.58 2.04-.56.65-1.22 1.35-2.01 1.72-.04.02-.07.05-.09.08-.48-.12-.97-.2-1.47-.19-.18 0-.35.02-.52.04.42-.27.83-.58 1.21-.87h.01Zm-3.49 1.65c.35 0 .69-.07 1.03-.17.5-.06 1-.17 1.51-.22.88-.09 1.74.16 2.56.46.79.3 1.55.68 2.31 1.05.77.36 1.54.72 2.3 1.1.77.39 1.52.81 2.25 1.28.63.41 1.23.84 1.9 1.18.83.42 1.89.71 2.83.54-.44.27-.91.49-1.38.68-1.26.51-2.62.78-3.99.81-1.85-1.13-3.27-2.81-4.93-4.19-.87-.72-1.82-1.34-2.87-1.77-.51-.21-1.05-.38-1.6-.42-.53-.04-1.06.04-1.6.06-.11-.13-.22-.27-.33-.4l.01.01Zm.65.79c.41-.03.81-.07 1.22-.05.58.02 1.16.24 1.69.47 1.01.42 1.91 1.06 2.74 1.77 1.45 1.22 2.71 2.65 4.27 3.73-.47-.02-.93-.06-1.39-.13-1.81-.28-3.45-1.02-4.9-2.13-1.37-1.05-2.52-2.33-3.63-3.65v-.01Z"></path><path fill="#3CA9FF" d="M113.24 60.58c-.57-2.88-1.78-5.54-3.61-7.83a27.083 27.083 0 0 0-6.52-5.84c-2.52-1.62-5.31-2.89-8.27-3.41-1.39-.25-2.82-.33-4.23-.18-1.47.16-2.92.6-4.28 1.17-2.85 1.18-5.4 2.93-7.93 4.67-1.12.77-6.79 5.68-7.77 3.26-.41-1.01.57-2.19 1.24-2.82.07-.06.13-.12.2-.18.96-.85 2.06-1.55 3.17-2.19.44-.25.89-.5 1.34-.74 1.5-.8 3.11-1.47 4.46-2.52 1.04-.81 2-1.75 2.84-2.77 3.39-4.1 4.83-9.45 4.77-14.7-.06-5.24-1.61-10.57-4.56-14.92-3.09-4.56-7.81-7.65-13-9.34C66.61.79 61.91.24 57.21.16c-4.69.09-9.39.63-13.87 2.08-5.19 1.68-9.91 4.78-13 9.34-2.95 4.35-4.49 9.68-4.56 14.92-.07 5.25 1.38 10.6 4.77 14.7.84 1.02 1.79 1.96 2.84 2.77 1.35 1.05 2.96 1.72 4.46 2.52.45.24.9.49 1.34.74 1.11.64 2.21 1.33 3.17 2.19.07.06.13.12.2.18.67.63 1.65 1.81 1.24 2.82-.98 2.41-6.65-2.5-7.77-3.26-2.53-1.73-5.08-3.49-7.93-4.67-1.37-.57-2.81-1-4.28-1.17-1.41-.15-2.84-.07-4.23.18-2.96.53-5.75 1.8-8.27 3.41-2.46 1.58-4.7 3.56-6.52 5.84-1.83 2.29-3.04 4.95-3.61 7.83-1.15 5.82.49 12.05 3.78 16.91 1.7 2.52 3.95 4.72 6.4 6.5 2.52 1.83 5.4 3.22 8.49 3.74 1.5.25 3.06.26 4.57.01 1.67-.27 3.19-.92 4.71-1.64 3.35-1.59 6.58-3.41 9.79-5.27 2.01-1.17 4-2.37 6-3.56 1-.6 2.01-1.19 3.02-1.78.99-.58 3.22-2.7 4.04-.99.79 1.67.42 3.73.23 5.49-.6 5.83-3.62 11.52-6.96 16.25-.8 1.14-1.88 2.37-3.35 2.58-1.29.18-2.36-1.25-2.08-2.47.83.07 1.8-.02 2.31-.74.46-.64.32-1.49-.04-2.15-.9-1.63-2.92-2.62-4.71-1.86-1.22.51-2.16 1.58-2.8 2.71a6.346 6.346 0 0 0-.76 3.7c.15 1.37.89 2.51 1.84 3.46.87.88 1.94 1.5 3.13 1.81 2.34.61 4.83-.09 6.95-1.1.4-.19.79-.4 1.18-.62.03.84.34 1.68.88 2.31.37.43.86.73 1.42.84.49.1.99-.02 1.43-.23.05 1 .86 1.87 1.8 2.25.51.21 1.08.23 1.61.07-.01 1.48 1.12 2.85 2.58 3.24.18.05.37.08.55.1.18-.02.37-.05.55-.1 1.46-.38 2.6-1.75 2.58-3.24.52.16 1.09.14 1.61-.07.95-.38 1.75-1.26 1.8-2.25.45.21.94.33 1.43.23.56-.11 1.05-.41 1.42-.84.54-.63.85-1.47.88-2.31.39.22.78.42 1.18.62 2.12 1.02 4.61 1.71 6.94 1.1a6.79 6.79 0 0 0 3.13-1.81c.95-.96 1.69-2.1 1.84-3.46.13-1.26-.14-2.59-.76-3.7-.63-1.13-1.58-2.19-2.8-2.71-1.79-.75-3.81.23-4.71 1.86-.36.65-.49 1.5-.04 2.15.52.72 1.48.81 2.31.74.28 1.22-.8 2.65-2.08 2.47-1.47-.21-2.55-1.44-3.35-2.58-3.34-4.73-6.36-10.42-6.96-16.25-.18-1.76-.56-3.83.24-5.49.82-1.72 3.05.41 4.04.99 1.01.59 2.02 1.18 3.02 1.78 2 1.19 3.99 2.39 6 3.56 3.2 1.87 6.44 3.68 9.79 5.27 1.52.72 3.04 1.37 4.71 1.64 1.5.25 3.06.24 4.57-.01 3.09-.52 5.97-1.91 8.49-3.74 2.45-1.78 4.7-3.99 6.4-6.5 3.29-4.86 4.93-11.09 3.78-16.91h.03Zm-1.57-.12c-.21 1.67-.96 3.27-1.87 4.68-.24.37-.49.73-.75 1.08.08-.42.12-.85.16-1.27.08-.93.13-1.86.27-2.78.25-1.68.69-3.33 1.1-4.98.47 1.05.84 2.14 1.08 3.27h.01Zm-1.63-4.38c.12.22.24.45.35.68-.44 1.78-.94 3.55-1.2 5.36-.13.92-.19 1.85-.27 2.78-.06.64-.13 1.29-.32 1.9-.32.4-.65.8-.98 1.19-.33.37-.67.74-1.01 1.11.62-1.3 1.07-2.69 1.36-4.11.34-1.66.57-3.34.93-5 .29-1.33.65-2.64 1.14-3.91Zm-1.61 1.37.05-.05c0 .02 0 .03-.01.05v.02s-.02-.01-.03-.02h-.01Zm.52-.68.04-.04c0 .01 0 .03-.01.04h-.03Zm-.28-2.78c.16.21.31.42.46.63-.52.99-1.28 1.75-2.3 2.12-1 .37-2.15.38-3.24.25-1.24-.14-2.45-.44-3.65-.74-3.44-.86-6.9-1.64-10.43-1.95-.51-.04-1.03-.08-1.55-.11.42-.49.76-1.04 1.07-1.61.2-.13.44-.19.68-.21.68-.06 1.38.07 2.03.25.89.24 1.75.54 2.61.87.86.32 1.7.65 2.58.91.86.25 1.72.45 2.59.64 1.74.38 3.47.65 5.26.4.83-.12 1.61-.33 2.35-.72.5-.26.97-.56 1.44-.87.04.05.08.1.11.14h-.01Zm-5.65 14.46c-1.5 1.69-3.31 3.01-5.34 4-2.69 1.31-5.88 2.28-8.88 1.73-2.62-.48-4.51-2.31-6.26-4.2-.12-.23-.25-.46-.37-.69-.75-1.46-1.42-3.06-1.29-4.73.06-.82.31-1.58.6-2.34.29-.73.61-1.44.99-2.13s.81-1.37 1.29-1.99c.47-.6.99-1.19 1.62-1.61 1.28-.84 2.85-.95 4.34-.81 1.57.15 3.12.45 4.59 1.02 1.46.56 2.81 1.35 4.05 2.29 1.23.93 2.42 1.93 3.77 2.7 1.31.75 2.7 1.26 4.2 1.45-.85 1.91-1.94 3.72-3.33 5.29l.02.02Zm2.65-2.48-.18.3c.06-.1.12-.2.19-.3h-.01Zm-48.48 34.69c.09.1.19.2.29.3a54.367 54.367 0 0 0 .63 1.99c-.28-.27-.58-.51-.91-.69-.33.19-.63.43-.91.69l.06-.18c.2-.6.38-1.21.57-1.81.1-.1.19-.2.29-.3h-.02Zm-.09-.33c.03-.09.05-.18.08-.26 0-.02.01-.04.02-.06 0 .02.01.04.02.06.03.09.05.17.08.26-.03-.04-.07-.07-.1-.11-.03.04-.06.07-.09.11h-.01Zm.89-.3s0-.02-.01-.03c-.26-.88-.54-1.75-.75-2.65-.01-.05-.02-.11-.04-.16l-.03.16c-.21.89-.49 1.77-.75 2.65 0 .01 0 .02-.01.03-.27-.54-.73-1-1.37-.98-.31.01-.58.13-.81.31.33-.63.66-1.26.98-1.9.3-.29.57-.62.95-.8.34-.16.72-.07 1 .16.01.01.03.02.04.04.01-.01.03-.02.04-.04.28-.23.66-.32 1-.16.38.18.65.51.95.8.32.64.65 1.27.99 1.9-.24-.18-.5-.3-.81-.31-.64-.02-1.1.43-1.37.98Zm-1.67-7.17c-.19.56-.4 1.12-.62 1.67a.895.895 0 0 0-.26-.44.798.798 0 0 0-.3-.16c.67-.99 1.28-2.02 1.84-3.09-.21.68-.43 1.36-.66 2.03v-.01Zm.36 1.24c.17-.12.34-.24.51-.35.18.11.35.23.52.35.29.77.6 1.53.95 2.28.05.1.1.21.15.31-.25-.22-.53-.39-.87-.39-.29 0-.54.07-.74.21-.2-.13-.45-.21-.74-.21-.34 0-.62.17-.87.39.05-.1.1-.21.15-.31.35-.75.66-1.51.95-2.28h-.01Zm-1.42.22c.17.18.21.46.23.71l-.42.96a1.71 1.71 0 0 0-.13-.23c-.25-.38-.61-.33-.98-.24.34-.43.68-.88.99-1.33.11 0 .22.03.31.12v.01Zm-1.03 1.43c.27-.05.43.1.55.33.05.09.08.19.11.29-.26.55-.53 1.1-.81 1.65-.07.14-.14.27-.21.41-.06-.47-.23-.91-.65-1.15-.18-.1-.4-.15-.63-.16.37-.39.72-.79 1.06-1.2.2-.04.38-.12.58-.16v-.01Zm5.27.61c.03-.1.07-.2.11-.29.12-.22.28-.38.55-.33.2.04.39.11.58.16.34.41.69.81 1.06 1.2-.23 0-.46.06-.63.16-.42.24-.59.68-.65 1.15-.07-.14-.14-.27-.21-.41-.28-.55-.55-1.09-.81-1.65v.01Zm-.04-.59c-.05.07-.09.15-.13.23-.15-.32-.29-.64-.42-.96.01-.26.06-.54.23-.71.09-.09.2-.12.31-.12.32.46.65.9.99 1.33-.36-.09-.72-.14-.98.24v-.01Zm-.5-1.68a.94.94 0 0 0-.26.44c-.22-.55-.43-1.1-.62-1.67-.23-.67-.45-1.35-.66-2.03.56 1.07 1.17 2.1 1.84 3.09-.11.02-.21.07-.3.16v.01Zm-1.43-.48c-.11-.08-.22-.15-.34-.21-.12.06-.23.13-.34.21.12-.33.23-.65.34-.98.11.33.22.66.34.98Zm-1.78-2.96c-.04.07-.08.15-.12.22-.13.08-.26.16-.4.23-.48.26-1.06.54-1.63.49.23-.56.44-1.12.63-1.69.03.02.08.03.12.01.99-.31 1.79-1 2.5-1.74.06-.06.11-.12.17-.18-.4.9-.82 1.78-1.27 2.65v.01Zm-.49.76.1-.05c-.35.63-.73 1.24-1.13 1.84l-.17.11c-.43.27-.95.51-1.47.44.32-.61.62-1.24.9-1.88h.02c.61.08 1.23-.19 1.76-.46h-.01ZM53.8 93.8c-.22.3-.44.6-.67.9-.25.32-.5.62-.76.92-.32.08-.65.13-.96.17.28-.44.55-.89.8-1.34.08-.14.16-.29.24-.43h.01c.45.09.91 0 1.35-.21l-.01-.01Zm-1.76 2.18c-.48.52-.97 1-1.48 1.47-.37.34-.76.67-1.15.98.69-.75 1.3-1.57 1.85-2.43.03.05.07.08.14.07.21-.02.42-.06.64-.09Zm-.23 1.89c.16-.15.31-.3.47-.46.27-.03.55 0 .78.09.47.19.55.84.56 1.38-.24.44-.47.88-.69 1.33l-.12.24c-.02-.11-.04-.21-.07-.32-.21-.71-.92-1.13-1.63-1.19-.17-.01-.34 0-.51.02.42-.35.82-.72 1.21-1.09Zm1.6 3.07c.12-.25.25-.5.37-.75.31-.36.63-.73 1.08-.83.71-.17 1.2.5 1.4 1.11-.22.74-.46 1.48-.7 2.22-.01.04-.02.08-.04.11-.11-.42-.35-.79-.76-.99-.66-.33-1.3-.05-1.92.27.2-.38.38-.77.56-1.13l.01-.01Zm2.67 2.62c.33-.36.69-.7 1.1-.97.41.26.77.61 1.1.97.19.6.38 1.2.62 1.77-.35-.31-.74-.58-1.16-.75-.19-.08-.38-.13-.57-.16-.19.03-.37.09-.57.16-.42.17-.81.44-1.16.75.25-.57.44-1.17.62-1.77h.02Zm2.77-.76s-.02-.08-.04-.11c-.24-.74-.47-1.48-.7-2.22.2-.62.69-1.29 1.4-1.11.44.11.77.47 1.08.83.13.25.25.5.37.75.18.37.36.75.56 1.13-.62-.32-1.27-.6-1.92-.27-.41.21-.65.58-.76.99l.01.01Zm2.61-2.59c-.22-.45-.46-.89-.69-1.33.01-.53.09-1.19.56-1.38.23-.09.5-.11.78-.09.15.16.31.31.47.46.39.38.8.74 1.21 1.09-.17-.02-.34-.03-.51-.02-.71.06-1.42.48-1.63 1.19-.03.11-.05.21-.07.32l-.12-.24Zm.88-4.23c.21.04.43.07.64.09.07 0 .12-.03.14-.07.56.86 1.17 1.68 1.85 2.43-.39-.32-.78-.65-1.15-.98-.52-.47-1.01-.96-1.48-1.47Zm-.33-.37c-.26-.29-.51-.6-.76-.92a15 15 0 0 1-.67-.9c.44.2.89.31 1.35.21h.01c.08.15.16.29.24.43.25.45.52.9.8 1.34a8.05 8.05 0 0 1-.96-.17l-.01.01Zm-1.69-2.31c-.06-.03-.11-.07-.17-.11-.4-.6-.78-1.21-1.13-1.84.03.02.06.03.1.05.53.27 1.14.54 1.75.46h.03c.27.64.57 1.26.89 1.88-.52.07-1.04-.17-1.47-.44Zm-1.17-2.2c-.14-.07-.27-.15-.4-.23-.04-.07-.08-.15-.12-.22-.46-.87-.88-1.75-1.27-2.65.05.06.11.12.16.18.7.73 1.51 1.43 2.5 1.74.05.02.09 0 .12-.01.19.57.4 1.13.64 1.69-.57.05-1.15-.23-1.63-.49v-.01Zm-1.52-3.23c-.15-.16-.3-.33-.44-.5-.14.17-.29.34-.44.5-.67.73-1.46 1.43-2.42 1.75.2-.63.39-1.27.54-1.91.88-.3 1.55-1.04 2.12-1.75.07-.08.13-.17.2-.25.07.08.13.17.2.25.56.71 1.24 1.45 2.12 1.75.16.64.34 1.28.54 1.91-.96-.32-1.74-1.02-2.42-1.75Zm-.12-2.22c-.11-.15-.22-.29-.33-.44-.11.15-.21.3-.33.44-.51.67-1.12 1.37-1.91 1.71.07-.32.14-.65.2-.97.08-.42.15-.84.2-1.26.7-.5 1.22-1.2 1.75-1.86.02-.03.05-.06.07-.09.03.03.05.06.08.09.54.66 1.05 1.36 1.75 1.86.06.42.12.84.2 1.26.06.32.13.65.2.97-.79-.34-1.4-1.04-1.91-1.71h.03ZM11.36 68.44c-1.39-1.57-2.47-3.38-3.33-5.29 1.5-.2 2.89-.7 4.19-1.45 1.35-.77 2.54-1.77 3.77-2.7 1.25-.94 2.59-1.72 4.05-2.29 1.47-.57 3.03-.87 4.59-1.02 1.49-.14 3.06-.03 4.34.81.64.42 1.16 1.01 1.62 1.61.49.62.92 1.3 1.3 1.99s.7 1.4.99 2.13c.3.76.54 1.52.61 2.34.14 1.67-.54 3.28-1.29 4.73-.12.23-.24.46-.37.69-1.75 1.89-3.64 3.72-6.26 4.2-3.01.55-6.2-.42-8.88-1.73-2.03-.99-3.84-2.31-5.34-4l.01-.02Zm-2.47-2.18-.18-.3c.06.1.12.2.19.3h-.01Zm13.37 10.5c1.58-.15 3.16-.55 4.6-1.23 1.53-.72 2.79-1.82 4-2.97 1.27-1.21 2.47-2.49 3.75-3.69.77-.72 1.57-1.43 2.39-2.1.76-.61 1.7-1.28 2.72-1.24l.9.51c-.51.25-1.01.49-1.5.77-.73.43-1.42.95-2.09 1.47-1.34 1.05-2.58 2.23-3.82 3.4-1.15 1.09-2.3 2.2-3.54 3.18-.93.74-1.96 1.49-3.1 1.87-1.67.21-3.36.23-5.03.07.24-.01.48-.03.72-.05v.01Zm11.59-15.82.15.15c-.01 0-.03.01-.04.02-.03-.04-.06-.09-.09-.13 0 0-.01-.02-.02-.03v-.01Zm.32 4.65v-.07.02c0 .01 0 .02-.01.03l.01.02Zm4.37-.74s.09.05.14.08c-.02 0-.05.01-.07.02-.02-.03-.04-.07-.06-.1h-.01Zm-10.08 11.4c1.25-.78 2.36-1.77 3.44-2.77 1.25-1.15 2.47-2.35 3.74-3.49 1.27-1.13 2.63-2.28 4.14-3.08.42-.22.85-.42 1.27-.63.29.16.58.31.87.46 1.27.64 2.61 1.1 3.99 1.41.19.04.39.09.58.13-2.79.78-5.29 2.37-7.79 3.79-3.03 1.71-6.16 3.34-9.55 4.19-.37.09-.75.18-1.12.25.15-.09.29-.17.44-.26h-.01Zm16.97-8.99c-1.57-.4-3.05-1.07-4.45-1.88-1.43-.83-2.89-1.6-4.19-2.64-.69-.55-1.28-1.2-1.9-1.83-.65-.65-1.32-1.28-1.99-1.92-.56-.53-1.12-1.07-1.67-1.61-.49-.49-.99-.96-1.56-1.37a6.01 6.01 0 0 0-1.3-.69c.33 0 .66 0 .98.02.38.01.76.03 1.14.06 1.26.52 2.1 1.72 2.94 2.78.54.69 1.08 1.38 1.68 2.02.56.61 1.18 1.17 1.82 1.71 2.49 2.14 5.35 3.8 8.55 4.61.94.24 1.93.37 2.91.28.36.4.73.8 1.09 1.2h-.61c-1.16-.19-2.31-.44-3.43-.73l-.01-.01Zm4.79-4.03c-1.02.37-2.16.6-3.22.36-.47-.49-.94-.98-1.41-1.45 1.04.06 2.12-.28 3.02-.73.89-.45 1.8-1.12 2.35-1.99.34.62.66 1.25.97 1.89.1.2.19.4.28.6-.3.72-1.31 1.09-1.98 1.33l-.01-.01Zm2.12-.98c.08.18.15.36.22.54-.3.81-1.18 1.22-1.93 1.52-.95.38-1.98.11-2.96.01-.12-.12-.23-.25-.35-.37 1 .12 2.04-.11 3-.45.68-.24 1.59-.6 2.02-1.25Zm-4.03-1.55c-1.04.54-2.44.96-3.58.48a.27.27 0 0 0-.17-.03c-.16-.15-.32-.3-.49-.45 1.18-.19 2.35-.44 3.43-.94 1.01-.47 1.85-1.19 2.4-2.14l.6 1.02c-.41.92-1.35 1.62-2.2 2.06h.01Zm-4.51-.25c-.55-.49-1.11-.97-1.68-1.43.28-.02.57-.07.84-.13.86-.2 1.67-.54 2.45-.95 1.18-.62 2.46-1.46 2.94-2.71.48.69.94 1.4 1.38 2.11v.02c-1.15 2.13-3.65 2.76-5.94 3.11l.01-.02Zm4.22 5.96c-1.51.07-3.03-.39-4.44-.9-1.56-.57-3.03-1.39-4.39-2.34-1.37-.96-2.71-2.05-3.84-3.29-1.14-1.24-2.04-2.71-3.24-3.88-.18-.18-.38-.34-.59-.49.79.1 1.58.24 2.36.44 1.3.34 2.55.86 3.73 1.48 4.1 2.13 7.31 5.58 10.41 8.99v-.01Zm.44-1.23c.86.09 1.7.14 2.56-.2.68-.27 1.42-.67 1.89-1.26.26.76.49 1.53.69 2.32.04.15.08.3.11.45-.59.9-1.85 1.22-2.93 1.22-.77-.84-1.54-1.69-2.31-2.53h-.01Zm5.33 1.67c.47 1.95.84 3.92 1.35 5.85-.4-.59-.83-1.16-1.29-1.7-.89-1.05-1.88-2.01-2.81-3.01 1.02-.05 2.12-.38 2.75-1.14Zm.61 6.84c-.11.55-.15 1.11-.34 1.64-.18-.4-.39-.79-.61-1.17.15-.45.27-.91.32-1.37.22.3.43.6.63.9Zm.22.35c.2.32.39.65.57.99.04.08.09.16.13.25-.17.62-.34 1.23-.58 1.82-.15-.48-.33-.95-.52-1.41.25-.52.31-1.09.4-1.65Zm.9 1.62c.2.41.39.84.56 1.26-.11.53-.31 1.03-.49 1.54-.08.23-.22.45-.34.68-.1-.54-.22-1.08-.37-1.61.28-.6.46-1.24.64-1.87Zm3.3 6.34c-.02.91.03 1.82.13 2.72-.57-.47-1-1.07-1.47-1.63-.09-.11-.2-.22-.31-.34-.11.11-.21.22-.31.34-.47.57-.91 1.16-1.47 1.63.1-.9.15-1.82.13-2.72.51-.82.98-1.66 1.42-2.53.08.3.16.61.23.91.07-.3.15-.61.23-.91.44.86.91 1.7 1.42 2.53Zm-1.3-2.94c.16-.56.35-1.12.55-1.66.11.37.24.73.37 1.09.14.39.45.77.56 1.18-.09.6-.14 1.2-.17 1.8-.47-.79-.91-1.59-1.32-2.41h.01Zm-2.02 2.41c-.03-.6-.08-1.21-.17-1.8.11-.41.43-.79.56-1.18.13-.36.26-.72.37-1.09.21.55.39 1.1.55 1.66-.41.82-.84 1.63-1.32 2.41h.01Zm3.59-2.32c-.12-.23-.26-.45-.34-.68-.18-.51-.38-1.01-.49-1.54.17-.43.36-.85.56-1.26.18.64.37 1.27.64 1.87-.15.53-.27 1.07-.37 1.61Zm-.08-3.87c.04-.08.09-.16.13-.25.18-.34.37-.67.57-.99.09.56.16 1.13.4 1.65-.2.46-.37.93-.52 1.41-.24-.59-.41-1.21-.58-1.82Zm.93-1.59c.2-.31.41-.61.63-.9.05.46.17.92.32 1.37-.22.38-.42.77-.61 1.17-.19-.52-.23-1.09-.34-1.64ZM60.5 71c-.46.54-.89 1.11-1.29 1.7.51-1.94.88-3.91 1.35-5.85.64.76 1.73 1.09 2.76 1.14-.94 1-1.93 1.97-2.81 3.01h-.01Zm.14-4.52c.04-.15.07-.3.11-.45.2-.78.43-1.55.69-2.32.47.59 1.2.98 1.89 1.26.85.34 1.69.3 2.56.2-.77.84-1.54 1.69-2.31 2.53-1.08 0-2.34-.32-2.93-1.22h-.01Zm9.91-6.03c-2.29-.35-4.79-.98-5.94-3.11v-.02c.44-.71.9-1.42 1.38-2.11.48 1.25 1.77 2.09 2.94 2.71.78.41 1.59.76 2.45.95.27.06.55.11.84.13-.58.46-1.13.94-1.68 1.43l.01.02Zm6.18-3.03c1.19-.62 2.44-1.14 3.73-1.48.78-.2 1.57-.34 2.36-.44-.21.15-.41.31-.59.49-1.21 1.17-2.1 2.64-3.24 3.88-1.13 1.23-2.47 2.33-3.84 3.29-1.36.95-2.82 1.77-4.39 2.34-1.4.51-2.92.97-4.43.9 3.09-3.41 6.31-6.85 10.41-8.99l-.01.01Zm-9.89 2.34c1.08.5 2.26.75 3.43.94-.16.15-.33.3-.49.45-.05 0-.11 0-.17.03-1.13.47-2.54.05-3.58-.48-.85-.44-1.8-1.14-2.2-2.06.19-.34.39-.68.6-1.02.55.94 1.39 1.67 2.4 2.14h.01Zm-1.08 1.65c.89.45 1.98.79 3.01.73-.48.48-.95.96-1.41 1.45-1.07.24-2.2 0-3.22-.36-.67-.24-1.68-.6-1.98-1.33.09-.2.18-.4.28-.6.31-.64.63-1.27.97-1.89.55.87 1.45 1.54 2.35 1.99v.01Zm-1.73 2.09c.96.34 1.99.57 3 .45-.12.12-.23.25-.35.37-.98.1-2.01.37-2.96-.01-.75-.3-1.63-.71-1.93-1.52.07-.18.15-.36.22-.54.42.65 1.34 1.01 2.02 1.25Zm1.95 3.29c.97.09 1.96-.04 2.91-.28 3.2-.8 6.06-2.47 8.55-4.61.63-.54 1.25-1.1 1.82-1.71.59-.64 1.13-1.33 1.67-2.02.83-1.06 1.68-2.25 2.94-2.78.38-.03.76-.05 1.14-.06.33-.01.66-.02.99-.02-.46.18-.9.4-1.3.69-.57.4-1.07.88-1.56 1.37-.55.54-1.11 1.08-1.67 1.61-.67.63-1.34 1.27-1.99 1.92-.65.65-1.21 1.27-1.9 1.83-1.29 1.05-2.76 1.81-4.19 2.64-1.39.81-2.88 1.49-4.45 1.88-1.12.29-2.28.54-3.43.73h-.61c.36-.4.73-.8 1.09-1.2l-.01.01Zm14.52-5.85s-.01.02-.02.03c-.03.04-.06.09-.09.13-.01 0-.03-.01-.04-.02l.15-.15v.01Zm-.32 4.65c0-.01 0-.02-.01-.03v-.02.07l.01-.02Zm-4.37-.74s-.04.07-.06.1c-.02 0-.05-.01-.07-.02.04-.03.09-.05.13-.08Zm-7.37 3.3c1.38-.31 2.72-.77 3.99-1.41.29-.15.58-.3.87-.46.42.21.85.41 1.27.63 1.51.8 2.87 1.95 4.14 3.08 1.27 1.13 2.49 2.33 3.74 3.49 1.08.99 2.19 1.99 3.44 2.77.14.09.29.18.44.26-.38-.07-.75-.16-1.12-.25-3.39-.85-6.52-2.48-9.55-4.19-2.51-1.42-5.01-3-7.79-3.79.2-.04.39-.09.58-.13h-.01Zm16.24 6.72c-1.24-.99-2.39-2.09-3.54-3.18-1.24-1.17-2.48-2.35-3.82-3.4-.67-.52-1.36-1.04-2.09-1.47-.49-.28-.99-.52-1.5-.77l.9-.51c1.02-.04 1.96.63 2.72 1.24.82.66 1.62 1.38 2.39 2.1 1.28 1.2 2.48 2.49 3.75 3.69 1.21 1.15 2.48 2.25 4 2.97 1.44.68 3.01 1.08 4.6 1.23.24.02.48.04.72.05-1.67.16-3.37.14-5.03-.07-1.14-.38-2.17-1.14-3.1-1.87v-.01Zm23.06-22c.21.24.42.49.62.74-.21.14-.42.28-.63.41-.74.46-1.52.85-2.38 1.02-.9.17-1.82.24-2.73.19-.9-.05-1.77-.2-2.64-.39-.92-.2-1.83-.4-2.74-.66-1.76-.5-3.42-1.29-5.19-1.78-.58-.16-1.37-.38-2.09-.36.29-.1.6-.17.94-.2 1.77-.15 3.51.4 5.15 1 1.64.61 3.25 1.26 5.01 1.41 1.4.12 2.83-.02 4.21-.25.88-.15 1.93-.41 2.5-1.13h-.03Zm-.52-.58c-.12.2-.3.36-.51.48-.92.55-2.11.54-3.14.68-1.76.23-3.53.04-5.21-.53-1.47-.5-2.9-1.14-4.41-1.51.14-.25.25-.51.35-.77.62-.14 1.23-.22 1.88-.17.65.04 1.29.16 1.93.28 1.05.2 2.09.38 3.16.38.84 0 1.71-.02 2.53-.2.48-.11.99-.27 1.4-.55.71.6 1.38 1.24 2.01 1.92l.01-.01Zm-2.33-2.2c-.44.28-.99.41-1.49.48-.81.13-1.63.15-2.44.13-1.11-.02-2.18-.28-3.27-.47.16-.26.26-.56.34-.85.99-.04 1.88-.56 2.85-.71.67-.11 1.36-.13 2.03-.07.69.47 1.35.97 1.98 1.49Zm-4.17-2.85c.52.29 1.04.6 1.53.92-.44 0-.89.03-1.32.09-.26.04-.51.1-.76.16.08-.22.12-.46.22-.67.09-.18.21-.35.33-.5Zm-1.04-.54c.23.11.45.22.67.34-.09.12-.18.25-.26.38-.1.17-.17.34-.22.53-.05.18-.08.37-.19.53-.02.03-.03.06-.04.09a.75.75 0 0 1-.16.05c-.44.15-.88.3-1.34.35.1-.34.22-.68.37-1.01.11-.24.23-.47.41-.67.14-.16.32-.27.5-.39.09-.06.17-.12.25-.19l.01-.01Zm-.39-.19c-.16.12-.35.21-.47.32-.33.28-.54.67-.7 1.06-.17.41-.31.82-.43 1.25-.1.36-.21.73-.44 1.03-.48-.07-.96-.13-1.44-.13-.46 0-.89.06-1.33.14.04-.12.08-.23.12-.35.23-.66.48-1.3.8-1.92.31-.6.65-1.22 1.21-1.62.28-.2.57-.36.87-.52.61.22 1.22.47 1.81.75v-.01Zm-4.63-1.5h.07c.75.14 1.5.34 2.23.58-.23.13-.46.27-.66.43-.52.42-.87.97-1.18 1.56-.34.65-.62 1.32-.86 2.01-.08.24-.16.47-.25.71-.11.05-.14.18-.11.27-.1.25-.22.5-.36.74-.05-.01-.11-.02-.16-.04-.85-.17-1.73-.26-2.59-.17-.42.04-.81.13-1.17.27.02-.04.04-.09.06-.13.42-.88.79-1.77 1.22-2.64.44-.89.93-1.78 1.61-2.52.56-.61 1.29-1.12 2.16-1.07h-.01Zm-3.49-.23c.57-.04 1.13-.04 1.7 0-1.11.71-1.9 2.04-2.48 3.16-.45.88-.83 1.8-1.26 2.7-.22.46-.43.93-.66 1.39-.1.08-.14.18-.14.27-.34.64-.73 1.25-1.25 1.75a.38.38 0 0 0-.09.13c-.16 0-.31 0-.47-.01.21-.25.39-.54.53-.82.43-.85.68-1.78.96-2.69.42-1.34 1.08-2.58 1.77-3.79.26-.46.5-.93.81-1.36.17-.24.36-.5.59-.71l-.01-.02Zm-3.82 1.49c.11-.14.17-.2.32-.33l.75-.63c.69-.22 1.39-.38 2.12-.47.05 0 .1-.01.15-.02-.4.45-.7 1.03-.96 1.49-.69 1.25-1.41 2.49-1.88 3.84-.3.86-.5 1.74-.85 2.58-.21.49-.49 1.03-.88 1.42-.82 0-1.63.02-2.45.09.35-.62.58-1.32.8-1.97.37-1.13.71-2.25 1.23-3.32.31-.64.66-1.26 1.06-1.85.19-.28.38-.56.59-.83Zm-.88-.21s.08-.03.12-.05c-.24.31-.45.65-.65.97-.36.57-.69 1.16-.98 1.78-.5 1.05-.82 2.13-1.19 3.23-.27.81-.55 1.67-1.07 2.36-.5.06-1 .14-1.49.24.25-.28.46-.6.64-.92.44-.8.81-1.66 1.15-2.51.44-1.1.8-2.24 1.34-3.3.19-.37.38-.73.61-1.08.5-.26 1.01-.51 1.53-.73l-.01.01Zm-2.04 1c-.05.09-.11.19-.16.29-.5.92-.87 1.89-1.24 2.88-.37.97-.76 1.95-1.23 2.88-.27.54-.63 1.23-1.16 1.61-.37.09-.75.19-1.11.3-2.17.67-4.19 1.74-6.04 3.06h-.01c-.64.31-1.4.21-2.06.04-.73-.19-1.44-.5-2.11-.85-1.18-.62-2.51-1.45-2.71-2.84.3-.41.62-.81.95-1.2.52 1.46 1.82 2.48 3.35 2.79 1.34.27 2.75.12 4.07-.22 1.25-.33 2.51-.81 3.58-1.53 2.18-1.48 3.03-4.03 4.26-6.24.54-.33 1.08-.66 1.63-.96l-.01-.01Zm-11.75 7.36c2.24-.8 4.16-2.39 6.1-3.72 1.1-.75 2.2-1.52 3.32-2.24-.34.66-.66 1.33-1.01 1.99-.66 1.25-1.43 2.5-2.6 3.34-1.08.77-2.39 1.3-3.68 1.62-1.32.33-2.79.51-4.13.14-1.34-.37-2.46-1.33-2.84-2.68.43-.49.88-.96 1.36-1.41-.24 2.06 1.01 3.85 3.47 2.97l.01-.01ZM83.41 39.3a15.74 15.74 0 0 1-3.13 3.29c-.75.58-1.56 1.07-2.39 1.53h-.11c-.18.01-.1.01-.28 0-.47-.04-.75-.12-1.2-.35-.17-.08-.1-.04-.25-.14-.09-.06-.19-.12-.28-.19a5.3 5.3 0 0 1-.52-.42c-.02-.02-.05-.04-.07-.07l-.02-.02-.12-.12c-.07-.08-.15-.16-.22-.25-.14-.17-.27-.34-.38-.52-.03-.05-.06-.1-.09-.14-.01-.02-.04-.07-.04-.08a4.09 4.09 0 0 1-.31-.76c0-.03-.02-.1-.03-.12 0-.04-.02-.09-.02-.13l-.03-.25v-.13c0-.06.02-.12.03-.17 0-.01.05-.15.07-.19 0 0 0-.01.01-.02.02-.02.03-.04.05-.07.02-.03.04-.05.06-.07.05-.04.1-.08.15-.11 0 0 .18-.08.22-.1.03 0 .06-.02.09-.03.01 0 .09-.02.1-.02.1-.02.2-.04.31-.05h.12c.06 0 .12.01.19.03.47.09 1.01.34 1.52.51.55.18 1.14.33 1.71.13.65-.23 1.01-.86 1.18-1.49.34-1.33-.47-2.73-1.52-3.51-.51-.37-1.13-.69-1.76-.74-.7-.06-1.42.08-2.1.26-1.39.38-2.68 1.13-3.82 2-2.33 1.77-4.29 4.06-6.06 6.38-1.92 2.52-3.47 5.3-4.55 8.28-.59 1.62-1.04 3.29-1.51 4.96-.34 1.19-.69 2.38-1.05 3.57.08-.42.16-.83.23-1.25.32-1.83.59-3.66.82-5.5.19-1.53.35-3.05.76-4.54.79-2.87 2.12-5.59 3.82-8.03 1.7-2.43 3.77-4.63 6.21-6.34 1.06-.74 2.17-1.43 3.4-1.86 1.03-.37 2.13-.57 3.25-.59 2.01-.04 4.1.54 5.63 1.9.68.61 1.27 1.44 1.6 2.35.36.99.45 2.1.34 3.19l-.01-.01Zm-10.65 1.29c-.11.1-.21.2-.32.3.04-.62 0-1.24.04-1.86.07-.84.27-1.65.51-2.45l.24-.12c.49-.24 1.01-.45 1.54-.58-.05.3-.15.6-.2.87-.09.56 0 1.14 0 1.7-.36.06-.73.2-1.02.41-.62.44-.83 1.06-.81 1.72l.02.01Zm-.78.74c-.62.58-1.25 1.16-1.85 1.75.07-.74 0-1.51.01-2.24.02-.6.03-1.22.18-1.81.07-.26.15-.53.27-.77l.06-.12c.58-.48 1.19-.91 1.83-1.28-.18.63-.33 1.26-.4 1.91-.08.84.05 1.72-.12 2.56h.02Zm6.24-4.41c.31.42.48.92.41 1.42-.04.26-.12.51-.28.7 0 0-.08.07-.08.08-.02.01-.03.02-.03.03h-.02c-.02 0-.14.04-.08.03-.04 0-.09.01-.13.02h-.14c-.06 0-.12-.02-.17-.03-.12-.02-.14-.03-.28-.07-.26-.09-.51-.18-.76-.28-.18-.07-.37-.14-.56-.2.72-.56 1.48-1.07 2.13-1.7h-.01Zm-1-.11c.02-.25.03-.5.07-.75.15.09.29.19.42.31-.16.16-.32.3-.49.44Zm-.43.34c-.56.43-1.15.82-1.68 1.28H75c-.02-.59-.1-1.18.02-1.77.06-.28.15-.57.19-.87.55-.1 1.11-.17 1.61.02.03.01.06.03.1.04-.07.43-.08.86-.12 1.29l-.01.01Zm-7.05 5.17c0 .43 0 .86-.11 1.27-.38.4-.75.81-1.1 1.24l-.51.63c.07-.66 0-1.34 0-2.01 0-.72.05-1.44.16-2.14.06-.35.16-.69.25-1.04.5-.54 1.01-1.06 1.55-1.55a.75.75 0 0 0-.04.16c-.15.59-.18 1.2-.2 1.8-.01.55 0 1.09 0 1.63v.01Zm-2.32 3.92c-.59.77-1.17 1.56-1.74 2.35.08-.57.12-1.15.13-1.74 0-.86-.02-1.74.09-2.6.08-.59.35-1.11.52-1.67.15-.18.29-.36.44-.54.31-.38.64-.75.97-1.13-.03.11-.05.22-.06.33-.09.62-.15 1.25-.16 1.88-.01 1.01.21 2.15-.2 3.1l.01.02Zm-1.8-2.62a5.6 5.6 0 0 0-.12.59c-.09.79-.08 1.58-.09 2.37 0 .64-.04 1.27-.12 1.9-.04.29-.08.59-.15.89-.2.28-.39.56-.58.84-.29.42-.57.83-.85 1.25.18-1.89.03-3.82.38-5.68.48-.74 1-1.45 1.53-2.15v-.01Zm-2.06 2.98c-.21 1.87-.06 3.77-.36 5.63-.4.62-.78 1.24-1.15 1.88.04-.71 0-1.43.04-2.15.05-1.04.15-2.08.21-3.11.39-.77.8-1.52 1.26-2.26v.01Zm-2.04 8.5c-.31.6-.61 1.21-.89 1.82-.02-.34-.06-.67-.1-1-.08-.84-.09-1.69-.04-2.53.39-1.19.81-2.37 1.33-3.52-.05.68-.11 1.37-.14 2.05-.05 1.05.07 2.14-.16 3.18Zm-1.35 2.83c-.24.54-.47 1.08-.7 1.62-.09.21-.17.42-.26.62-.09-.54-.22-1.08-.23-1.62.36-1.25.7-2.5 1.07-3.75 0 .31.02.62.05.94.06.71.22 1.48.06 2.18l.01.01ZM57.1 28c.02-.11.05-.21.08-.31.04.1.06.2.08.31.23 1.28.11 2.63.11 3.93 0 1.92.01 3.85 0 5.77-.02 1.89-.06 3.78-.17 5.66 0 .1-.01.2-.02.3 0-.1-.01-.2-.02-.3-.1-1.88-.15-3.77-.17-5.66-.01-1.92 0-3.85 0-5.77 0-1.3-.13-2.65.11-3.93Zm-12.3 2.29s-.04-.03-.06-.04c0 0-.02-.01-.03-.02l-.03-.03-.03-.03a.138.138 0 0 1-.03-.04c-.01-.02-.03-.03-.04-.05 0 0-.01-.02-.02-.02 0-.01-.02-.03-.03-.04 0 0 0-.01-.01-.02a.468.468 0 0 1-.05-.1c-.05-.12-.09-.25-.09-.39 0-.35.2-.67.49-.83.01 0 .02-.01.03-.02.01 0 .03-.01.04-.02.01 0 .02 0 .03-.01.02 0 .04-.02.06-.03h.03c.02 0 .04-.01.06-.02h.02c.03 0 .05 0 .08-.01h.23c.03 0 .06 0 .08.01h.01c.03 0 .06.02.09.03.03.01.06.02.09.04.32.15.55.48.55.86v.02c0 .05 0 .09-.01.14v.01c0 .02 0 .04-.01.06v.02c0 .02-.01.04-.02.06-.02.06-.05.12-.08.18v.01c-.01.02-.02.03-.04.05-.05.08-.12.14-.19.2-.08.06-.16.1-.25.14a.88.88 0 0 1-.33.06c-.2 0-.38-.06-.53-.17h-.01Zm-5.32-.98c-.55-.51-1.1-1.02-1.68-1.5-.66-.55-1.38-1.05-2.08-1.56-.67-.49-1.25-1.1-1.95-1.56 0 0-.02 0-.02-.01.13-.2.31-.36.58-.43.68-.17 1.44.27 1.98.64.62.43 1.17.96 1.71 1.48.58.55 1.18 1.08 1.75 1.64.61.59 1.22 1.17 1.9 1.68-.31.3-.62.61-.91.93-.37-.48-.82-.91-1.27-1.32l-.01.01Zm.99 1.63c-.98-.19-1.98-.26-3.01-.18h-.06c-1.04-.8-1.99-1.75-2.8-2.76-.5-.63-.94-1.34-1.05-2.14-.04-.25-.03-.53.04-.79.64.43 1.2.97 1.8 1.45.68.54 1.41 1.01 2.08 1.55.56.45 1.09.95 1.62 1.43.49.44.98.9 1.38 1.43v.01Zm-.23-3.03c-.59-.57-1.2-1.12-1.8-1.68-1-.95-2.09-2.14-3.52-2.38-.57-.09-1.12.07-1.47.54-.39.52-.38 1.27-.24 1.88.36 1.49 1.63 2.71 2.7 3.74.29.28.6.55.92.81l-.39.06c-1.05-.72-2.19-1.31-3.17-2.14-1.01-.86-1.52-1.96-1.65-3.27-.09-.91-.09-2.09.62-2.77.94-.89 2.61-.62 3.68-.17.17.07.33.15.49.25.56.51 1.14 1 1.7 1.5.6.54 1.16 1.13 1.7 1.74.89.98 1.75 1.98 2.71 2.88-.19.16-.38.33-.57.5-.61-.45-1.17-.97-1.73-1.5l.02.01Zm-9.36-6.41c.24-.28.55-.52.88-.69.31.25.62.5.9.79-.39.14-.75.36-1.04.67-.26-.24-.48-.53-.75-.76l.01-.01Zm.5 1.08c-.15.23-.28.49-.37.79-.06.19-.1.38-.13.58-.12-.58-.2-1.16-.25-1.75 0-.1-.01-.2-.02-.3a.21.21 0 0 1 .04-.06c.26.22.48.51.73.75v-.01ZM46.39 10.7c.95 1.24 1.58 2.71 2.14 4.15.59 1.52 1.14 3.06 1.7 4.59.58 1.58 1.14 3.18 1.6 4.8-.27.06-.54.13-.81.2-.26.07-.51.15-.77.22-.48-1.66-.85-3.34-1.31-5-.25-.9-.48-1.8-.75-2.7-.24-.8-.53-1.58-.81-2.37-.23-.64-.48-1.29-.88-1.84-.26-.37-.68-.77-1.16-.75-.8.03-.88 1.43-.91 1.98-.11 1.89.37 3.78.98 5.56.37 1.1.8 2.17 1.23 3.25.37.94.75 1.88 1.18 2.8-.13.06-.25.11-.38.17-1.3-2.68-2.84-5.24-3.84-8.06-.5-1.4-.85-2.88-.84-4.37 0-.71.1-1.44.3-2.12.17-.58.45-1.17.96-1.51.87-.58 1.87.35 2.36.99l.01.01ZM45.19 8c.15.01.3.04.45.07.13.03.26.06.38.11.03.4.07.79.11 1.19-.26-.2-.54-.35-.83-.45-.06-.3-.09-.6-.1-.91L45.19 8Zm4.02-.09c.21.54.42 1.09.62 1.64 0 .02.01.03.02.04-.08.46-.13.91-.15 1.35-.12 2.17.18 4.34.65 6.45-.06-.19-.11-.39-.16-.59-.13-.53-.28-1.05-.4-1.58-.27-1.15-.48-2.32-.68-3.48-.12-.68-.25-1.36-.42-2.03.02-.04.03-.08.04-.12.06-.59.23-1.16.48-1.69v.01Zm4.31-2.13h.05c.06 0 .12 0 .18.02.03 0 .05 0 .08.02h.02c.05.02.11.04.16.06a.3.3 0 0 1 .08.04s.02.01.03.02c.27.17.34.27.52.52.38.52.63 1.18.83 1.85.25.8.41 1.63.54 2.45.26 1.62.39 3.25.46 4.89.1 2.23.16 4.46.11 6.69 0 .46-.03.91-.05 1.36-.28 0-.55 0-.83.01-.16-.78 0-1.6 0-2.39.02-.92 0-1.84-.02-2.76a72.12 72.12 0 0 0-.23-4.88c-.06-.78-.16-1.56-.31-2.33-.13-.7-.28-1.66-.82-2.19-.6-.58-1.19.24-1.37.77-.17.51-.21 1.05-.26 1.58-.05.67-.1 1.34-.12 2.02-.04 1.74.06 3.48.21 5.22.15 1.74.36 3.47.67 5.18-.16.02-.31.05-.46.08 0-.03 0-.07-.02-.1-1.05-3.3-2.13-6.63-2.46-10.09-.12-1.29-.16-2.59.02-3.87.17-1.21.56-2.41 1.42-3.3.26-.27.63-.54.92-.68.07-.03.13-.06.21-.09l.15-.05c.06-.01.12-.03.18-.03h.09l.02-.02Zm-.08-1.08c.51.02 1.02.15 1.47.34-.07.13-.15.26-.22.39-.09-.07-.19-.14-.29-.2-.29-.16-.61-.22-.93-.2 0-.09-.02-.18-.03-.27V4.7Zm6.29 1.76c.18-.25.26-.35.52-.52.02 0 .03-.02.03-.02.03-.01.05-.03.08-.04.05-.02.11-.05.16-.06h.02c.03 0 .06-.01.08-.02.06 0 .12-.02.18-.02h.14c.06 0 .12.02.17.03l.15.05c.07.03.14.05.2.09.28.14.66.41.92.68.86.89 1.26 2.09 1.42 3.3.18 1.28.14 2.58.02 3.87-.33 3.46-1.41 6.79-2.46 10.09-.01.03-.02.07-.02.1-.16-.03-.31-.05-.46-.08.31-1.71.52-3.45.67-5.18.15-1.74.26-3.48.21-5.22-.02-.67-.06-1.34-.12-2.02-.04-.53-.09-1.07-.26-1.58-.17-.53-.77-1.35-1.37-.77-.54.53-.68 1.48-.82 2.19-.15.77-.25 1.55-.31 2.33-.13 1.62-.2 3.25-.23 4.88-.02.92-.04 1.84-.02 2.76.02.79.17 1.61 0 2.39-.28-.01-.55-.01-.83-.01-.02-.46-.04-.91-.05-1.36-.05-2.23 0-4.46.11-6.69.08-1.63.2-3.27.46-4.89.13-.82.29-1.65.54-2.45.2-.66.45-1.33.83-1.85l.04.02Zm-.27-1.42c.46-.19.97-.32 1.48-.34v.06c0 .09-.02.18-.03.27a1.689 1.689 0 0 0-1.22.4c-.07-.13-.15-.26-.22-.39h-.01Zm6.19 4.56s.02.09.04.12c-.17.67-.3 1.35-.42 2.03-.2 1.16-.41 2.33-.68 3.48-.12.53-.27 1.05-.4 1.58-.05.2-.1.39-.16.59.47-2.12.77-4.28.65-6.45-.02-.44-.07-.89-.15-1.35 0-.01.02-.03.02-.04.2-.55.4-1.1.62-1.64.25.53.42 1.09.48 1.69V9.6Zm4.7.11c.51.34.8.93.96 1.51.2.69.29 1.41.3 2.12 0 1.49-.35 2.97-.84 4.37-1 2.82-2.54 5.38-3.84 8.06-.12-.06-.25-.12-.38-.17.43-.91.81-1.86 1.18-2.8.43-1.08.86-2.15 1.23-3.25.6-1.78 1.08-3.67.98-5.56-.03-.55-.11-1.95-.91-1.98-.49-.02-.9.39-1.16.75-.4.56-.66 1.2-.88 1.84-.28.79-.57 1.57-.81 2.37-.27.89-.49 1.8-.74 2.7-.46 1.66-.83 3.35-1.31 5-.26-.08-.51-.16-.77-.22-.27-.07-.54-.14-.81-.2.46-1.63 1.02-3.22 1.6-4.8.56-1.53 1.11-3.07 1.7-4.59.57-1.44 1.2-2.91 2.14-4.15.49-.64 1.49-1.57 2.36-.99v-.01Zm-2.1-.35c.04-.4.08-.79.11-1.19.12-.04.25-.08.38-.11.15-.03.3-.05.45-.07-.02.31-.05.61-.1.91-.29.1-.58.25-.83.45l-.01.01Zm14.49 12.91c-.29-.31-.64-.52-1.04-.67.28-.28.59-.53.9-.79.33.18.64.41.88.69-.27.23-.49.52-.75.76l.01.01Zm.99-.44s.02.04.04.06c0 .1-.01.2-.02.3-.05.59-.13 1.18-.25 1.75-.03-.2-.08-.39-.13-.58-.09-.3-.21-.56-.37-.79.25-.24.47-.53.73-.75v.01Zm-8.45 7.67c.53-.48 1.06-.98 1.62-1.43.67-.54 1.4-1.01 2.08-1.55.6-.48 1.16-1.02 1.8-1.45.07.26.07.54.04.79-.12.8-.55 1.52-1.05 2.14-.81 1.02-1.76 1.96-2.8 2.76h-.06c-1.03-.08-2.03-.01-3.01.18.4-.53.89-.99 1.38-1.43v-.01Zm-1.66 1.12c-.29-.32-.59-.63-.91-.93.68-.51 1.29-1.09 1.9-1.68.58-.55 1.18-1.08 1.75-1.64.54-.52 1.09-1.05 1.71-1.48.54-.37 1.29-.81 1.98-.64.26.07.45.22.58.43 0 0-.02 0-.03.01-.7.46-1.27 1.07-1.95 1.56-.7.51-1.42 1-2.08 1.56-.57.48-1.13.99-1.68 1.5-.44.41-.9.84-1.27 1.32v-.01Zm4.84-.62c1.07-1.03 2.34-2.25 2.7-3.74.14-.61.16-1.35-.24-1.88-.35-.47-.9-.63-1.47-.54-1.43.24-2.52 1.43-3.52 2.38-.59.57-1.2 1.11-1.8 1.68-.55.53-1.11 1.04-1.73 1.5-.19-.17-.37-.34-.57-.5.96-.9 1.82-1.91 2.71-2.88.54-.6 1.1-1.19 1.71-1.74.56-.51 1.14-.99 1.7-1.5.16-.09.32-.18.49-.25 1.08-.45 2.74-.72 3.68.17.72.68.72 1.86.62 2.77-.13 1.31-.64 2.41-1.65 3.27-.97.83-2.12 1.42-3.17 2.14l-.39-.06c.32-.26.62-.53.92-.81l.01-.01Zm-20.93-5.2c.02-.02.04-.05.06-.07 0 0 .02-.01.03-.02.01-.01.03-.02.04-.04.01-.01.03-.02.04-.03.01 0 .02-.02.04-.02.02-.01.04-.02.05-.03 0 0 .02 0 .03-.02l.06-.03h.02c.02 0 .05-.02.07-.03h.02c.03 0 .05-.01.08-.02h.27c.03 0 .05 0 .08.01h.01c.02 0 .05.01.07.02h.02c.02 0 .05.02.07.03h.02c.02 0 .04.02.06.03h.01c.02.01.04.03.07.04 0 0 .01 0 .02.01.02.01.04.03.06.04a182454216783.582 182454216783.582 0 0 0 .08.08l.05.05s.01.02.02.02c.01.01.02.03.03.04l.02.02c.04.05.06.11.09.17.02.05.04.11.05.17v.01c0 .03 0 .05.01.08v.22c0 .02 0 .05-.01.07v.04c0 .02 0 .04-.02.06 0 .01 0 .02-.01.04 0 .02-.01.04-.02.06 0 .01-.01.02-.02.04 0 .02-.02.04-.03.05 0 .01-.01.02-.02.03-.01.02-.03.04-.04.05 0 0-.01.02-.02.03l-.06.06-.01.01a.27.27 0 0 1-.08.07c-.17.14-.38.22-.6.22-.07 0-.13 0-.19-.02h-.02c-.02 0-.04-.01-.07-.02-.01 0-.02 0-.03-.01-.02 0-.03-.01-.05-.02-.01 0-.02 0-.04-.02-.01 0-.02-.01-.04-.02l-.15-.09h-.01c-.02-.01-.03-.03-.05-.04-.02-.02-.03-.03-.05-.04a.964.964 0 0 1-.27-.66c0-.23.08-.44.22-.61l.04-.01Zm-.33-10.15c-.07-1.09-.16-2.17-.31-3.25-.08-.61-.17-1.23-.3-1.85 0 0 .02-.02.02-.03.24-.38.41-.78.58-1.19.17.41.34.82.58 1.19 0 .01.01.02.02.03-.12.62-.21 1.25-.3 1.85-.14 1.08-.24 2.16-.31 3.25h.02Zm3.57-5.12c.34.36.4 1.01.45 1.46.07.59.11 1.19.14 1.79.09 1.89 0 3.79-.17 5.68-.15 1.76-.35 3.51-.66 5.24-.01.02-.02.05-.02.08s0 .05-.01.08c-.13-.02-.27-.03-.4-.05.07-.53.08-1.05.11-1.58l.12-1.89c.09-1.24.19-2.48.27-3.72.16-2.36.28-4.72.17-7.08v-.01Zm-2.62 21.29c.01-.66.03-1.32 0-1.98-.02-.42-.05-.88-.18-1.29.52.1 1.04.21 1.55.34.09 1.2-.34 2.4-.5 3.58-.22 1.58-.45 3.16-.61 4.76-.07.73-.17 1.46-.27 2.19 0-.75.01-1.49.01-2.24 0-1.79-.02-3.57 0-5.36Zm.68 5.23c.07-.83.18-1.65.3-2.47.11-.74.19-1.49.31-2.23.18-1.09.54-2.23.49-3.35.28.07.55.15.82.23-.22 2.75-.9 5.43-1.58 8.09-.25 1-.51 2-.75 3 .13-1.09.3-2.18.4-3.28l.01.01Zm1.79-9.43h-.3c-.02 0-.03 0-.05-.01-.02 0-.03 0-.05-.01h-.02c-.05-.02-.11-.05-.16-.08a.958.958 0 0 1-.47-.82c0-.16.04-.32.12-.46.05-.1.13-.19.21-.26.01-.01.03-.02.04-.03.01 0 .02-.02.03-.03 0 0 .02-.01.03-.02.02-.01.03-.02.05-.03h.01c.02-.01.04-.02.07-.03 0 0 .05-.02.08-.03.02 0 .03-.01.05-.02.01 0 .03 0 .04-.01.01 0 .03 0 .04-.01h.29c.03 0 .05 0 .08.01h.01c.02 0 .04.01.07.02h.02c.02 0 .05.02.07.03 0 0 .02 0 .02.01.02 0 .03.01.05.02.01 0 .02.01.03.02.02.01.04.02.06.04.01 0 .02.01.04.02 0 0 .02.01.02.02.02.02.04.03.07.05l.01.01c.01.01.02.03.04.04v.01c.03.02.05.05.07.08.01.02.02.03.03.05.07.11.12.23.14.35v.26c0 .03 0 .05-.01.08v.02c0 .03-.01.05-.02.07V26c0 .02-.01.04-.02.06 0 0 0 .02-.01.03 0 .02-.02.04-.03.06 0 .01-.01.02-.02.03 0 0-.01.02-.02.03-.01.02-.03.04-.04.06 0 0 0 .01-.01.01-.06.07-.12.13-.19.19-.13.1-.29.17-.46.19l-.01-.04Zm-.44-9.83c-.09 1.24-.19 2.48-.27 3.72-.08 1.08-.06 2.19-.21 3.26-.2-.02-.4-.04-.6-.05.1-.55.07-1.12.03-1.68-.05-.77-.04-1.53-.03-2.3.01-1.6.05-3.21.15-4.81.09-1.45.19-2.95.58-4.36.06-.23.24-.96.53-1.15.12 2.46 0 4.91-.18 7.36v.01Zm-.84 22.01c.83-3.41 1.86-6.81 2.16-10.32.39.13.78.27 1.17.41.28.1.55.21.82.33-.11.28-.22.57-.32.86-1.28 3.52-2.32 7.14-3.37 10.74-.53 1.82-1.04 3.65-1.52 5.48-.12.45-.25.91-.36 1.37 0-.09-.01-.18-.02-.28v-.05c.34-2.87.76-5.72 1.44-8.53v-.01Zm3.25-11.51s-.03-.01-.05-.02c-.01 0-.02 0-.03-.01-.02 0-.04-.02-.06-.03 0 0-.01 0-.02-.01-.02 0-.04-.02-.05-.03 0 0-.01 0-.02-.01a.264.264 0 0 1-.06-.05s-.01 0-.02-.01l-.06-.06-.06-.06c-.02-.02-.03-.04-.05-.07a.959.959 0 0 1-.17-.54c0-.25.1-.5.28-.67.03-.03.05-.05.08-.07l.09-.06s.01 0 .02-.01c.02 0 .03-.02.05-.03h.02c.03-.01.06-.03.09-.04h.02c.02 0 .03 0 .05-.02h.28c.25 0 .5.1.67.28.15.15.24.34.27.55v.13c0 .25-.1.5-.28.67l-.06.06c-.01 0-.02.02-.03.03 0 0-.02.01-.03.02-.02.01-.03.02-.05.03h-.01l-.06.03c-.13.07-.28.1-.43.1h-.03c-.09 0-.18-.01-.27-.04h-.03l.01-.06ZM58.95 45.4c.49-1.85 1.02-3.7 1.57-5.54 1.04-3.52 2.06-7.05 3.36-10.49.59.25 1.17.53 1.75.82-.34.32-.62.71-.86 1.11-.85 1.38-1.68 2.77-2.38 4.24-.78 1.63-1.42 3.3-1.97 5.02-.28.86-.54 1.72-.79 2.58-.26.86-.54 1.71-.73 2.59v.03h-.02l.09-.35-.02-.01Zm7.25-19.96c-.14-.06-.29-.12-.43-.18.19-.47.3-.97.42-1.46.14-.59.29-1.17.46-1.74.31-1.08.64-2.15.88-3.25.26-1.18.58-2.35.92-3.51.27-.92.67-1.84.7-2.8.08.06.15.16.2.31.32.87.25 1.94.15 2.85-.2 1.83-.8 3.57-1.45 5.28-.58 1.51-1.14 3.05-1.84 4.51l-.01-.01Zm.36 1.92c.05-.04.11-.06.18-.09.06-.02.13-.04.19-.05h.13c.06 0 .12 0 .18.02h.03c.02 0 .03 0 .05.01.01 0 .03 0 .04.01.02 0 .03.01.04.02.01 0 .02 0 .03.01.02 0 .04.02.07.03.01 0 .02.01.04.02.01 0 .02.01.03.02.01 0 .03.02.04.03.01 0 .02.01.03.02.03.02.06.05.09.07.18.17.29.42.29.68 0 .06 0 .11-.02.16 0 .06-.03.12-.05.18 0 0-.02.04-.03.07 0 .02-.02.03-.03.05 0 .01-.01.03-.02.04 0 .02-.02.03-.03.04 0 .01-.02.03-.03.04 0 0-.04.05-.06.07l-.04.04s-.02.01-.03.02a.18.18 0 0 1-.07.05c-.12.09-.27.15-.43.18h-.34c-.03 0-.05-.01-.08-.02h-.03c-.02 0-.03-.01-.05-.02-.01 0-.02-.01-.04-.02-.01 0-.03-.01-.04-.02-.01 0-.02-.01-.04-.02a.971.971 0 0 1-.49-.83c0-.05 0-.1.01-.15 0-.03 0-.06.02-.09 0 0 .02-.06.03-.08 0-.03.02-.05.03-.08.01-.03.03-.05.04-.07.01-.02.03-.04.04-.07.02-.02.03-.04.05-.06.02-.02.04-.04.05-.06l.01-.01c.02-.01.03-.03.05-.04 0 0 .02-.01.02-.02 0 0 .01 0 .02-.01.02-.01.03-.02.05-.03l.07-.04Zm1.84-13.31c-.16.5-.31 1.01-.46 1.52-.3 1.05-.59 2.11-.83 3.18-.25 1.13-.6 2.24-.91 3.36-.28.99-.44 2.04-.82 3-.29-.11-.57-.21-.86-.31 1.03-3.5 1.69-7.1 3.03-10.51.24-.61.54-1.34 1.1-1.74.03-.02.06-.04.09-.05-.02.53-.17 1.05-.33 1.55h-.01ZM64.67 26.3s.05-.02.07-.03c.02 0 .05-.01.07-.02.02 0 .05 0 .07-.01h.36c.02 0 .04 0 .06.01h.01c.02 0 .05.01.07.02.03 0 .05.02.08.03.05.02.1.05.15.08h.01c.02.01.04.03.06.04l.06.06.06.06c.14.17.22.39.22.61v.14s0 .05-.01.07v.01s-.01.05-.02.07c0 .01 0 .02-.01.03 0 .02 0 .03-.02.04 0 .01-.01.02-.02.03 0 .01-.01.03-.02.04 0 0 0 .02-.02.03v.01c0 .01-.01.02-.02.03 0 0 0 .02-.02.02 0 .01-.01.02-.02.03 0 0 0 .01-.01.02 0 0 0 .01-.01.02l-.06.06-.06.06c-.02.02-.04.03-.05.04l-.01.01c-.05.03-.1.06-.15.08a.89.89 0 0 1-.39.09h-.06c-.05 0-.11 0-.16-.01-.02 0-.04 0-.06-.01h-.01c-.02 0-.04-.01-.06-.02h-.01c-.04-.01-.07-.03-.11-.04h-.02c-.01 0-.02-.01-.04-.02-.01 0-.03-.01-.04-.02-.01 0-.02-.01-.03-.02-.01 0-.03-.02-.04-.03 0 0-.02-.01-.02-.02l-.06-.06c-.01-.02-.03-.03-.04-.05a.957.957 0 0 1-.19-.34v-.03c0-.02 0-.03-.01-.05v-.32c0-.03 0-.06.01-.09 0-.03.02-.06.03-.09 0 0 .02-.06.04-.09.05-.1.11-.2.19-.28 0 0 .01 0 .02-.01a.8.8 0 0 1 .27-.18h-.03Zm-2.81 12.38c.63-1.67 1.37-3.33 2.26-4.89.37-.64.78-1.27 1.16-1.9.28-.46.6-1.01 1.07-1.32.23.12.45.25.67.37-.38.43-.6.97-.85 1.49-.32.65-.7 1.27-1.01 1.92-.6 1.26-1.06 2.57-1.69 3.81l-.12.15c-.98 1.21-1.87 2.5-2.66 3.86.36-1.17.73-2.34 1.16-3.48l.01-.01Zm3.65-4.09c.31-.66.7-1.28 1.02-1.94.25-.52.47-1.08.87-1.51.32.19.62.38.91.59-.7 1.02-.98 2.29-1.77 3.24-.73.64-1.43 1.33-2.08 2.05.35-.81.67-1.63 1.05-2.43Zm3.4-2.4c.21.17.42.36.65.53-.49.31-.97.63-1.43.97.23-.52.46-1.03.78-1.5Zm.16-1.74a.96.96 0 0 1-.58-.2.903.903 0 0 1-.19-.2c-.01-.02-.02-.03-.04-.05v-.01c-.03-.06-.06-.12-.08-.18 0-.02-.01-.04-.02-.06v-.02c0-.02 0-.04-.01-.06v-.01c0-.04-.01-.09-.01-.14v-.02c0-.38.23-.71.55-.86.03-.02.06-.03.09-.04.03 0 .06-.02.09-.03h.01c.03 0 .06-.01.08-.01h.23c.03 0 .05 0 .08.01h.02c.02 0 .04 0 .06.02h.03c.02 0 .04.02.07.03.01 0 .02 0 .03.01.01 0 .03.01.04.02.01 0 .02.01.03.02.29.16.49.48.49.83 0 .14-.03.27-.09.39-.02.04-.04.07-.06.1 0 0 0 .01-.01.02 0 .01-.02.03-.03.04 0 0-.01.02-.02.02-.01.02-.03.03-.04.05-.01.01-.02.03-.03.04l-.03.03-.03.03s-.02.01-.03.02a.21.21 0 0 1-.06.04c-.15.1-.34.17-.54.17Zm6.87-11.84c-.29.41-.53.82-.78 1.25-.54.94-1.12 1.85-1.68 2.77-.57.93-1.15 1.85-1.8 2.72-.54.72-1.15 1.4-1.66 2.15-.33-.22-.67-.44-1.01-.64 1.46-2.22 2.64-4.62 4.24-6.74.47-.63.98-1.23 1.58-1.75.44-.38 1.08-.97 1.72-.9h.04c-.13.43-.4.79-.65 1.15v-.01Zm1-.92c.15.24.13.6.07.88-.16.78-.49 1.55-.86 2.26-.77 1.49-1.8 2.82-2.84 4.13-.43.54-.84 1.09-1.24 1.65-.36.49-.75 1.11-1.29 1.41h-.01c-.14-.1-.27-.2-.41-.3.52-.78 1.16-1.47 1.71-2.22.64-.88 1.23-1.79 1.79-2.72.58-.96 1.19-1.9 1.74-2.87.24-.42.5-.81.77-1.21.22-.32.44-.64.57-1.01ZM70.2 30.18s.04-.04.07-.06l.02-.01c.02-.02.03-.03.05-.04 0 0 .02-.01.03-.02.02 0 .03-.02.04-.03.01 0 .02-.02.04-.02.01 0 .02-.01.04-.02.09-.05.19-.08.29-.09.04 0 .09-.01.14-.01.14 0 .27.03.39.09 0 0 .02 0 .02.01.02 0 .03.02.05.03h.01c.02 0 .03.02.04.03h.01c.01 0 .03.02.04.03h.01c.02.01.03.02.04.04.02.01.03.03.04.04.02.02.03.03.04.05a.905.905 0 0 1 .22.6c0 .52-.43.95-.95.95h-.24c-.03 0-.05-.01-.07-.02-.01 0-.02 0-.04-.01-.01 0-.03-.01-.04-.02-.01 0-.02-.01-.04-.02-.02 0-.03-.02-.05-.03-.01 0-.03-.02-.04-.02 0 0-.02-.01-.03-.02-.01 0-.02-.02-.04-.03 0 0-.02-.01-.03-.02-.02-.02-.04-.03-.05-.05l-.02-.02-.04-.04-.02-.02c-.02-.02-.03-.04-.05-.06 0 0 0-.01-.01-.02-.01-.02-.02-.04-.03-.05 0 0 0-.02-.01-.02l-.03-.06v-.01a.91.91 0 0 1-.08-.37c0-.24.1-.47.25-.64l.03-.02Zm1.08-1.76s-.03-.03-.05-.04l-.12-.09c.5-.35.88-.88 1.24-1.37.46-.63.93-1.25 1.41-1.87 1.13-1.44 2.27-2.92 3.03-4.6.29-.65.63-1.41.67-2.13.02-.44-.06-.94-.49-1.16-.44-.24-1-.06-1.41.17-.63.36-1.18.86-1.68 1.39-1.06 1.14-1.89 2.47-2.69 3.8-.83 1.38-1.64 2.79-2.54 4.13-.31-.18-.62-.35-.94-.51.25-.48.53-.94.83-1.39.95-1.42 2.05-2.73 3-4.14.76-1.13 1.41-2.34 2.22-3.43.75-1.02 1.68-1.96 2.93-2.33 1.04-.31 2.32-.23 3.03.68.64.81.75 1.96.48 2.94-.38 1.38-1.37 2.5-2.4 3.46l-.3.27c-.25.15-.47.32-.67.49-.07.07-.11.14-.12.22-.79.7-1.59 1.41-2.31 2.19-1.03 1.12-2.01 2.29-3.12 3.33v-.01Zm10.02-6.96c-.49-.11-1.02-.12-1.55-.05 0-.02.02-.04.02-.07.01-.04.01-.08 0-.11.54-.62 1.14-1.21 1.8-1.73-.09.17-.3.38-.3.58 0 .2.1.37.3.39.21.02.43.07.65.15-.33.27-.65.54-.94.84h.02Zm-.92-1.45c.13-.23.25-.48.35-.73.15-.39.26-.81.32-1.23.35-.18.7-.36 1.04-.54-.03.42-.1.83-.21 1.22 0 .01 0 .02-.01.03-.52.38-1.02.8-1.49 1.24v.01Zm1.73-2.98c-.33.19-.67.37-1.02.54.02-.44-.03-.89-.15-1.31.35-.16.72-.3 1.06-.49.07.38.11.78.11 1.17v.09Zm-1.3-1.16c-.15-.37-.37-.71-.64-1 .32-.35.64-.71.92-1.09.39.46.65.99.81 1.57-.34.21-.72.36-1.09.52Zm-.94-1.27c-.3-.25-.64-.43-1.02-.55.17-.46.35-.92.52-1.39a4.1 4.1 0 0 1 1.43.83c-.28.39-.6.75-.93 1.11Zm-1.43-.65c-.28-.04-.57-.06-.86-.05.22-.49.48-.98.69-1.48.23.02.47.06.7.12-.18.47-.35.94-.53 1.41Zm-1.33 0c-.47.08-.94.22-1.38.43.4-.6.75-1.22 1.09-1.86.32-.08.66-.12.99-.12h.02c-.23.52-.5 1.03-.73 1.55h.01Zm-2.24.95s-.09.06-.13.1c-1.04.81-1.79 1.91-2.48 3.02-.18.28-.35.56-.53.84.02-.04.04-.09.07-.13.58-1.11 1.09-2.26 1.67-3.36.25-.46.5-.92.75-1.37.57-.45 1.16-.93 1.83-1.22l.21-.09c-.42.77-.88 1.51-1.4 2.21h.01Zm-1.77.31c-.59 1.11-1.09 2.25-1.67 3.36-.18.34-.36.68-.55 1.01.36-.84.68-1.7.94-2.58.19-.65.34-1.31.45-1.97.19-.21.35-.55.42-.66.26-.41.53-.82.79-1.23.03.25.06.49.07.73 0 .11.07.2.16.25-.2.36-.4.72-.59 1.09h-.02Zm-.46-1.55c-.09.15-.18.29-.27.44.04-.49.04-.99 0-1.49 0-.04 0-.08-.01-.12.07 0 .13-.04.17-.12.16-.32.37-.61.59-.89.1.34.19.69.25 1.05-.24.38-.49.76-.73 1.14v-.01Zm-.35-1.7c-.07-.46-.18-.95-.35-1.4.18-.23.37-.45.56-.67.18.37.33.75.47 1.14-.25.3-.49.6-.68.93Zm-.53-1.82c-.21-.41-.49-.77-.86-1.01.18-.25.36-.51.53-.77.11.07.22.15.32.23.05.07.1.15.15.22.14.22.28.45.4.68-.19.21-.37.43-.55.64l.01.01Zm-1.22-1.21c-.33-.14-.67-.17-.99-.13.04-.28.07-.56.08-.84.4 0 .8.03 1.2.09.08.03.16.07.24.11-.18.26-.36.52-.53.77Zm-2.71.81s-.02.02-.03.04c-1.1 1.16-1.8 2.74-2.39 4.2-.07.17-.13.34-.2.51.19-.9.35-1.8.51-2.7.11-.64.24-1.29.39-1.92.08-.02.16-.06.21-.12.49-.53 1.02-1.07 1.66-1.4-.04.47-.09.94-.14 1.4l-.01-.01Zm-3.42-.91a7.3 7.3 0 0 0-.45-1.29c0-.01.01-.03.02-.05.08-.33.2-.64.34-.95.24.27.45.57.64.88-.19.47-.37.94-.54 1.41h-.01Zm-.71-1.81c-.2-.34-.43-.65-.7-.93.12-.15.23-.31.34-.47.24.19.47.39.69.61-.12.26-.23.52-.33.8v-.01Zm-1-1.21c-.29-.25-.62-.46-1-.62-.11-.05-.23-.09-.35-.12.01-.13.03-.25.03-.38.32.03.64.11.93.27.24.12.47.26.69.42-.09.15-.19.29-.3.43Zm-3.92.81s-.04.07-.05.11a3.99 3.99 0 0 1-.58-.83c.3-.27.62-.51.98-.7.1.16.19.33.29.5-.25.27-.46.59-.64.93v-.01Zm-.23.5c-.25.58-.44 1.2-.59 1.82-.29-.55-.48-1.16-.73-1.73-.25.57-.44 1.18-.73 1.73-.15-.62-.33-1.24-.59-1.82.28-.28.5-.6.69-.94.22.22.42.45.62.68.2-.23.41-.46.62-.68.19.34.41.66.69.94h.02Zm-2.81-.39s-.03-.07-.05-.11c-.17-.34-.38-.66-.64-.93.09-.16.19-.33.29-.5.36.19.68.43.98.7-.16.3-.35.58-.58.83v.01Zm-.39 16.98c-.2.01-.4.03-.6.05-.15-1.07-.14-2.18-.21-3.26-.08-1.24-.18-2.48-.27-3.72-.18-2.45-.3-4.91-.18-7.36.29.19.47.92.53 1.15.39 1.41.49 2.9.58 4.36.1 1.6.14 3.21.15 4.81 0 .77.02 1.53-.03 2.3-.04.56-.07 1.13.03 1.68v-.01Zm.94 7.1c.03 1.79 0 3.57 0 5.36 0 .75 0 1.49.01 2.24-.1-.73-.2-1.46-.27-2.19-.16-1.59-.39-3.17-.61-4.76-.16-1.18-.6-2.38-.5-3.58.51-.13 1.03-.24 1.55-.34-.13.41-.15.87-.18 1.29-.04.66-.02 1.32 0 1.98Zm-3.12-4.57-.01-.01c-.01-.02-.03-.04-.04-.06 0 0-.01-.02-.02-.03 0-.01-.01-.02-.02-.03 0-.02-.02-.04-.03-.06 0 0 0-.02-.01-.03 0-.02-.01-.04-.02-.06v-.02c0-.02-.01-.05-.02-.07v-.02c0-.03 0-.05-.01-.08v-.26c.02-.13.07-.25.14-.35 0-.02.02-.03.03-.05a.5.5 0 0 1 .07-.08v-.01c.01-.01.02-.03.04-.04l.01-.01a.18.18 0 0 1 .07-.05s.02-.01.03-.02c.01 0 .02-.02.03-.02a.21.21 0 0 0 .06-.04s.02-.01.03-.02c.01 0 .03-.01.05-.02 0 0 .02 0 .03-.01.02 0 .05-.02.07-.03h.02c.02 0 .04-.01.07-.02h.01c.03 0 .05 0 .08-.01h.29c.02 0 .03 0 .05.01.01 0 .03 0 .04.01.02 0 .03.01.05.02.03 0 .05.02.08.03 0 0 .04.02.07.04h.01c.02 0 .03.02.05.03 0 0 .02.01.02.02.01 0 .02.02.03.03.01 0 .02.02.04.03.08.07.16.16.21.26.08.14.12.29.12.46 0 .34-.19.65-.47.82-.05.03-.1.06-.16.08h-.02c-.02 0-.03.01-.04.01-.02 0-.03 0-.05.01h-.31a.857.857 0 0 1-.46-.19.856.856 0 0 1-.19-.19l-.02.03Zm.67-9.64c.09 1.24.19 2.48.27 3.72l.12 1.89c.03.53.04 1.06.11 1.58-.13.01-.27.03-.4.05v-.08c0-.03-.01-.06-.02-.08-.31-1.73-.52-3.48-.66-5.24-.16-1.89-.26-3.78-.16-5.68.03-.59.07-1.19.14-1.79.05-.46.11-1.1.45-1.46-.11 2.36 0 4.73.17 7.08l-.02.01Zm.67 11.39c-.05 1.12.31 2.25.49 3.35.12.74.2 1.49.31 2.23.12.82.23 1.65.3 2.47.09 1.1.26 2.18.4 3.28-.23-1-.49-2-.75-3-.68-2.66-1.36-5.35-1.58-8.09.27-.08.55-.16.82-.23l.01-.01Zm-2.68-.72c-.09.03-.18.04-.27.04h-.03c-.15 0-.29-.04-.42-.1-.02 0-.04-.02-.06-.03h-.02c-.02 0-.03-.02-.05-.03-.01 0-.02-.01-.03-.02-.01 0-.02-.02-.04-.03l-.06-.06a.947.947 0 0 1-.28-.67v-.13c.03-.21.12-.4.27-.55.18-.18.42-.28.67-.28h.29c.02 0 .03 0 .05.02h.02c.03.01.06.02.09.04h.02c.02 0 .03.02.04.03 0 0 .01 0 .02.01.03.02.07.04.1.06a.947.947 0 0 1 .14 1.35l-.06.06-.06.06s-.01 0-.02.01c-.02.02-.04.03-.06.05 0 0-.01 0-.02.01-.02.01-.04.02-.05.03 0 0-.01 0-.02.01-.02.01-.04.02-.07.03-.01 0-.02 0-.03.01-.01 0-.03.01-.05.02h-.03l.02.06Zm.94-22.09c-.38.16-.71.37-1 .62-.11-.14-.21-.29-.3-.43.22-.15.45-.29.69-.42.29-.15.61-.24.93-.27 0 .13.02.25.03.38-.12.03-.24.07-.35.12Zm-1.3.9c-.27.28-.5.59-.7.93a7.92 7.92 0 0 0-.33-.8c.22-.22.45-.42.69-.61.1.16.22.32.34.47v.01Zm-.98 1.4s0 .03.02.05c-.19.41-.33.85-.45 1.29-.18-.47-.36-.95-.54-1.41.18-.31.4-.6.64-.88.14.31.26.62.34.95h-.01Zm-1.73 4.29c.16.9.32 1.81.51 2.7-.07-.17-.13-.34-.2-.51-.59-1.46-1.3-3.04-2.39-4.2a.138.138 0 0 1-.03-.04c-.05-.47-.1-.94-.14-1.4.64.34 1.17.87 1.66 1.4.06.06.13.1.21.12.15.63.28 1.28.39 1.92l-.01.01Zm-.51 13.63c-.7-1.46-1.26-3-1.84-4.51-.65-1.71-1.25-3.45-1.45-5.28-.1-.9-.17-1.98.15-2.85.05-.14.12-.25.2-.31.03.96.43 1.89.7 2.8.34 1.16.67 2.32.92 3.51.24 1.1.57 2.17.88 3.25.17.58.32 1.16.46 1.74.12.49.23.99.42 1.46-.14.06-.29.12-.43.18l-.01.01Zm.08 2.73c0 .35-.2.67-.49.83-.01 0-.02.01-.04.02-.01 0-.02.01-.04.02-.01 0-.02.01-.04.02-.02 0-.03.01-.05.02h-.03c-.02 0-.05.02-.08.02h-.34a.965.965 0 0 1-.43-.18c-.02-.02-.04-.03-.07-.05l-.02-.02c-.02-.02-.03-.03-.05-.04a.435.435 0 0 1-.06-.07s-.02-.03-.03-.04c0-.01-.02-.03-.03-.04 0-.01-.01-.03-.02-.04 0-.02-.02-.03-.03-.05 0-.02-.02-.04-.03-.07-.02-.06-.04-.12-.05-.18 0-.05-.01-.11-.01-.16 0-.26.11-.51.29-.68 0 0 .06-.05.09-.07 0 0 .02-.01.03-.02.01 0 .02-.02.04-.03.01 0 .02-.01.03-.02.01 0 .02-.01.04-.02s.04-.02.07-.03c.01 0 .02-.01.03-.01.01 0 .03-.01.04-.02.01 0 .02 0 .04-.01.02 0 .03 0 .05-.01h.03c.06-.01.12-.02.18-.02h.13c.07 0 .13.03.2.05.06.02.12.05.18.09.02.01.03.02.05.03 0 0 .01 0 .02.01l.02.02c.02.01.03.03.05.04l.01.01c.02.02.04.04.05.06.02.02.04.04.05.06.02.02.03.04.04.07.01.02.03.05.04.07.01.03.02.05.03.08l.03.09s.01.06.02.09c0 .05.01.1.01.15l.05.03Zm-2.62-15.66s.06.03.09.05c.56.39.86 1.12 1.1 1.74 1.34 3.41 2 7.01 3.02 10.51-.29.1-.58.2-.86.31-.38-.95-.54-2.01-.82-3-.31-1.12-.66-2.23-.91-3.36-.24-1.07-.52-2.13-.83-3.18-.15-.51-.3-1.01-.46-1.52-.16-.5-.32-1.02-.33-1.55Zm2.89 14.05.06-.06c.02-.02.04-.04.07-.06.02-.02.04-.03.06-.04h.01c.05-.03.1-.06.15-.08 0 0 .05-.02.08-.03.02 0 .05-.01.07-.02h.01c.02 0 .04 0 .06-.01h.37c.02 0 .05 0 .07.01.02 0 .05.01.07.02.02 0 .05.02.07.03.1.04.19.11.27.18 0 0 .01 0 .02.01.08.08.14.17.19.28.01.03.03.06.04.09l.03.09c0 .03.01.06.01.09v.32c0 .02 0 .03-.01.05v.03c-.04.13-.11.24-.19.34 0 0-.03.03-.04.05l-.06.06s-.02.01-.02.02c-.01.01-.03.02-.04.03-.01 0-.02.01-.03.02-.01 0-.03.01-.04.02-.01 0-.02.01-.04.02h-.02c-.04.02-.07.03-.11.04h-.01c-.02 0-.04.01-.06.02h-.01c-.02 0-.04 0-.06.01-.05 0-.11.01-.16.01h-.06a.86.86 0 0 1-.39-.09c-.05-.02-.1-.05-.15-.08l-.01-.01c-.02-.01-.04-.03-.05-.04a.435.435 0 0 0-.07-.06l-.06-.06s0-.01-.02-.02c0 0 0-.01-.01-.02 0 0-.01-.02-.02-.03 0 0 0-.02-.01-.02 0-.01-.01-.02-.02-.03v-.01s-.01-.02-.02-.03c0-.01-.01-.03-.02-.04 0-.01-.01-.02-.02-.03 0-.02-.01-.03-.02-.04 0-.01 0-.02-.01-.03 0-.02-.01-.05-.02-.07v-.02c0-.02-.01-.05-.01-.07v-.14c0-.22.08-.44.22-.61l-.04.01ZM43.91 8.91c-.18-.25-.36-.51-.53-.77.08-.04.16-.07.24-.11.4-.06.8-.1 1.2-.09.01.28.04.56.08.84-.33-.04-.66 0-.99.13Zm-.36.19c-.37.25-.65.6-.86 1.01-.18-.22-.37-.43-.55-.64.13-.24.26-.46.4-.68.05-.08.1-.15.15-.22.1-.08.21-.16.32-.23.17.26.35.51.53.77l.01-.01Zm-1.04 1.43c-.17.45-.28.94-.35 1.4-.2-.33-.44-.63-.68-.93.13-.39.29-.77.46-1.14.19.22.38.44.57.67Zm-.58 1.82c.04.08.1.11.17.12 0 .04 0 .08-.01.12-.04.5-.04.99 0 1.49-.09-.15-.18-.29-.27-.44-.24-.38-.48-.76-.73-1.14.07-.35.15-.7.25-1.05.22.28.43.57.59.89v.01Zm-.16 2c.07.11.23.45.42.66.1.67.26 1.33.45 1.97.26.88.58 1.74.94 2.58-.19-.33-.37-.67-.55-1.01-.58-1.11-1.09-2.25-1.67-3.36-.19-.37-.39-.73-.59-1.09.09-.05.15-.14.16-.25.01-.24.04-.49.07-.73.26.41.52.82.79 1.23h-.02Zm-.8 1c.59 1.11 1.09 2.25 1.67 3.36.02.04.05.09.07.13-.18-.28-.35-.56-.53-.84-.69-1.11-1.44-2.21-2.48-3.02-.04-.03-.09-.06-.13-.1-.52-.7-.98-1.44-1.4-2.21l.21.09c.67.29 1.25.77 1.83 1.22.25.45.51.91.75 1.37h.01Zm-2.26-.99c-.44-.21-.9-.36-1.38-.43-.22-.52-.5-1.02-.72-1.55h.02c.34 0 .67.04.99.12.34.63.7 1.26 1.09 1.86Zm-1.84-.48c-.29-.01-.57 0-.86.05-.18-.47-.36-.94-.53-1.41.23-.06.47-.1.7-.12.21.5.47.98.69 1.48Zm-1.26.14c-.38.12-.72.31-1.02.55-.32-.36-.64-.72-.93-1.11.41-.37.9-.65 1.43-.83.17.46.35.92.52 1.39Zm-1.32.83c-.27.29-.48.62-.64 1-.37-.16-.75-.31-1.09-.52.16-.57.42-1.11.81-1.57.28.38.6.74.92 1.09Zm-.21 5.13c-.47-.45-.96-.87-1.49-1.24 0-.01 0-.02-.01-.03a5.03 5.03 0 0 1-.21-1.22c.34.19.69.37 1.04.54.06.42.17.84.32 1.23.1.25.22.49.35.73v-.01Zm-.56-3.75c-.12.42-.17.87-.15 1.31-.34-.17-.68-.35-1.02-.54v-.09c0-.39.04-.78.11-1.17.34.19.7.33 1.06.49Zm-.64 4.2c.21-.02.3-.2.3-.39s-.21-.41-.3-.58c.65.52 1.26 1.11 1.8 1.73v.11c0 .02.01.04.02.07-.53-.07-1.06-.06-1.55.05-.29-.3-.61-.57-.94-.84.21-.08.43-.13.65-.15h.02Zm7.18 4.62c-.72-.78-1.52-1.49-2.31-2.19a.374.374 0 0 0-.12-.22c-.2-.18-.42-.34-.67-.49l-.3-.27c-1.03-.96-2.01-2.08-2.4-3.46-.27-.98-.16-2.13.48-2.94.72-.91 2-.99 3.04-.68 1.25.37 2.18 1.31 2.93 2.33.81 1.1 1.45 2.3 2.22 3.43.96 1.41 2.06 2.72 3 4.14.3.45.58.91.83 1.39-.32.16-.63.33-.94.51-.89-1.34-1.7-2.75-2.53-4.13-.8-1.33-1.62-2.66-2.69-3.8-.49-.53-1.05-1.03-1.68-1.39-.41-.23-.96-.4-1.41-.17-.43.23-.52.72-.49 1.16.04.72.38 1.48.67 2.13.76 1.68 1.9 3.16 3.03 4.6.48.61.95 1.24 1.41 1.87.35.48.73 1.02 1.24 1.37l-.12.09c-.02.01-.03.03-.05.04-1.11-1.04-2.09-2.21-3.12-3.33l-.02.01Zm2.73.25c-.65-.87-1.23-1.79-1.8-2.72-.56-.92-1.14-1.83-1.68-2.77-.25-.43-.49-.84-.78-1.25-.25-.36-.52-.72-.65-1.15h.04c.63-.07 1.28.53 1.72.9.59.52 1.11 1.12 1.58 1.75 1.6 2.12 2.78 4.53 4.24 6.74-.34.2-.68.42-1.01.64-.51-.75-1.12-1.42-1.66-2.15v.01Zm1.32 2.38c-.14.1-.28.2-.41.3h-.01c-.54-.3-.93-.92-1.29-1.41-.41-.56-.81-1.11-1.24-1.65-1.04-1.31-2.06-2.65-2.84-4.13-.37-.71-.7-1.47-.86-2.26-.06-.28-.08-.65.07-.88.13.37.35.7.57 1.01.28.4.54.79.78 1.21.55.97 1.16 1.91 1.74 2.87.56.93 1.15 1.85 1.79 2.72.55.76 1.19 1.45 1.71 2.22h-.01Zm-1.37 2.6s.05-.08.08-.11c.01-.02.03-.03.04-.05l.04-.04.04-.04c.01-.01.03-.02.04-.03h.01c.01 0 .03-.02.04-.03h.01c.02 0 .03-.02.05-.03 0 0 .01 0 .02-.01.12-.05.25-.09.39-.09.05 0 .09 0 .14.01.1.02.2.05.29.09.01 0 .02.01.03.02.01 0 .02.01.04.02.02 0 .03.02.04.03 0 0 .02.01.03.02.02.01.04.03.05.04 0 0 .01 0 .02.01l.06.06c.15.17.25.39.25.64 0 .13-.03.25-.08.37v.01c0 .02-.02.04-.03.06 0 0 0 .02-.01.02-.01.02-.02.03-.03.05 0 0 0 .01-.01.02-.01.02-.03.04-.05.06 0 0-.01.02-.02.02-.01.01-.02.03-.04.04l-.02.02c-.02.02-.04.03-.05.05 0 0-.02.01-.03.02-.01 0-.02.02-.04.03 0 0-.02.01-.03.02-.01 0-.03.02-.04.02-.02 0-.03.02-.05.03-.01 0-.02.01-.04.02-.01 0-.03.01-.04.02-.01 0-.02 0-.04.01-.02 0-.05.02-.07.02h-.24c-.52 0-.95-.43-.95-.95 0-.18.05-.35.14-.49l.06.02Zm2.81 1.87c.32.46.55.98.78 1.5-.46-.34-.94-.67-1.43-.97.23-.17.45-.35.65-.53Zm.6-.46c.29-.21.6-.4.91-.59.39.43.61.99.87 1.51.32.66.7 1.28 1.02 1.94.38.8.7 1.62 1.05 2.43-.66-.72-1.35-1.4-2.08-2.05-.79-.95-1.07-2.22-1.77-3.24Zm3.13 2.61c-.31-.65-.69-1.27-1.01-1.92-.25-.51-.47-1.05-.85-1.49.22-.13.45-.25.68-.37.47.31.78.86 1.07 1.32.39.63.79 1.26 1.16 1.9a32.34 32.34 0 0 1 2.26 4.89c.43 1.15.8 2.31 1.16 3.48a29.3 29.3 0 0 0-2.65-3.86l-.12-.15c-.63-1.24-1.1-2.55-1.69-3.81l-.01.01Zm2.79 1.19c-.71-1.47-1.53-2.85-2.38-4.24-.24-.4-.52-.79-.86-1.11.57-.29 1.16-.56 1.75-.82 1.3 3.43 2.32 6.97 3.36 10.49.54 1.84 1.07 3.68 1.56 5.54l.09.35h-.02v-.03c-.19-.88-.47-1.73-.73-2.59-.26-.86-.52-1.72-.79-2.58-.55-1.72-1.19-3.39-1.97-5.02l-.01.01Zm2.57 5.28c-1.05-3.6-2.09-7.21-3.37-10.74-.1-.29-.21-.57-.32-.86.27-.11.55-.22.82-.33.38-.15.77-.28 1.17-.41.3 3.51 1.33 6.91 2.16 10.32.68 2.81 1.1 5.66 1.44 8.53v.05c0 .09-.01.18-.02.28l-.36-1.37c-.47-1.84-.99-3.66-1.52-5.48v.01Zm1.88-14.51s-.03.01-.05.02c-.01 0-.02 0-.03.01-.02 0-.04.01-.06.02h-.02c-.06.01-.12.02-.19.02-.23 0-.44-.08-.6-.22a.5.5 0 0 1-.08-.07l-.01-.01a.265.265 0 0 1-.05-.06s-.01-.02-.02-.03c-.01-.02-.03-.03-.04-.05 0 0-.01-.02-.02-.03a.218.218 0 0 0-.03-.05c0-.01-.01-.02-.02-.04 0-.02-.02-.04-.02-.06 0-.01 0-.02-.01-.04 0-.02-.01-.04-.02-.06v-.04c0-.02 0-.04-.01-.07v-.22c0-.03 0-.05.01-.08v-.01c.01-.06.03-.12.05-.17.02-.06.05-.12.09-.17l.02-.02c.01-.01.02-.03.03-.04l.02-.02a.12.12 0 0 1 .05-.05l.02-.02.04-.04.02-.02a.21.21 0 0 1 .06-.04s.01 0 .02-.01c.02-.01.04-.03.07-.04h.01l.06-.03h.02c.02-.01.05-.02.07-.03h.02c.02 0 .05-.01.07-.02H56c.03 0 .06-.01.08-.01h.28c.03 0 .05 0 .08.02h.02c.02 0 .05.02.07.03h.02c.02 0 .04.02.07.03 0 0 .02.01.03.02.02.01.04.02.05.03.01 0 .02.02.03.02.01.01.03.02.04.03.01.01.03.02.04.04 0 0 .02.01.03.02.02.02.04.05.07.07a.95.95 0 0 1-.05 1.27c-.01.01-.03.03-.05.04h-.01c-.02.01-.03.03-.05.04h-.01c-.05.04-.1.07-.15.09-.01 0-.03.01-.04.02-.01 0-.02.01-.04.02l.01.01Zm.71 38.1c.54-1.6 1.04-3.22 1.52-4.84 0-.01 0-.03.01-.04.09.48.19.97.19 1.44-.47 1.16-.93 2.33-1.41 3.49-.11.26-.21.53-.32.8-.1-.27-.2-.53-.31-.8-.48-1.16-.94-2.33-1.41-3.49 0-.48.1-.96.19-1.44 0 .01 0 .03.01.04.48 1.62.98 3.23 1.52 4.84h.01Zm27.38-26.93a7.497 7.497 0 0 0-.95-2.92c.84-.83 1.77-1.56 2.62-2.38.13-.13.26-.26.39-.4-.41 1.98-1.09 3.92-2.05 5.7h-.01ZM27.36 25.17c.08-1.33.27-2.65.55-3.95.14-.66.28-1.2.44-1.77 1.26-4.38 3.74-8.44 7.24-11.39 4-3.37 9.12-5.05 14.23-5.83 2.08-.32 4.17-.5 6.27-.58l1.15-.03c.38 0 .77.02 1.15.03 2.1.08 4.19.26 6.27.58 5.1.78 10.23 2.46 14.23 5.83 3.5 2.95 5.97 7.01 7.24 11.39.17.57.3 1.11.44 1.77.28 1.3.46 2.62.55 3.95.09 1.38.06 2.78-.07 4.16-1 1.71-2.65 2.85-4.05 4.23-.07-.08-.14-.15-.21-.23-.34-.35-.7-.67-1.1-.95.04-.04.07-.09.09-.15.97-2.28 2.02-4.55 2.65-6.95.63-2.41.8-4.88.13-7.3-.81-2.95-2.68-5.48-4.87-7.56-2.16-2.04-4.7-3.72-7.42-4.94-2.98-1.33-6.18-1.99-9.44-2.06-1.87-.04-3.73.08-5.58.28-1.85-.21-3.71-.32-5.58-.28-3.25.07-6.46.73-9.44 2.06a27.01 27.01 0 0 0-7.42 4.94c-2.2 2.08-4.06 4.61-4.87 7.56-.67 2.42-.5 4.89.13 7.3.63 2.4 1.68 4.67 2.65 6.95.03.06.06.11.09.15a7.576 7.576 0 0 0-1.3 1.18c-1.41-1.38-3.06-2.52-4.05-4.23-.14-1.38-.16-2.77-.07-4.16h-.03Zm2.49 12.26c-.96-1.78-1.64-3.72-2.05-5.7.13.13.26.27.39.4.84.83 1.77 1.56 2.62 2.38-.52.89-.83 1.89-.95 2.92h-.01Zm7.06 6.67c-.18.02-.1.01-.28 0h-.11c-.83-.45-1.64-.94-2.39-1.53A15.5 15.5 0 0 1 31 39.28c-.11-1.09-.02-2.2.34-3.19.33-.91.92-1.74 1.6-2.35 1.52-1.36 3.62-1.94 5.63-1.9 1.12.02 2.22.23 3.25.59 1.22.43 2.34 1.12 3.39 1.86 2.43 1.71 4.5 3.91 6.21 6.34 1.71 2.44 3.03 5.16 3.82 8.03.41 1.49.57 3.01.76 4.54.23 1.84.5 3.67.82 5.5.07.42.15.83.23 1.25-.36-1.19-.71-2.38-1.05-3.57-.48-1.66-.92-3.33-1.51-4.96-1.08-2.98-2.63-5.76-4.55-8.28-1.76-2.32-3.73-4.61-6.06-6.38-1.15-.87-2.43-1.62-3.82-2-.67-.18-1.39-.32-2.1-.26-.64.05-1.26.37-1.76.74-1.05.78-1.86 2.17-1.52 3.51.16.64.53 1.26 1.18 1.49.57.2 1.16.05 1.71-.13.51-.17 1.05-.43 1.52-.51.06-.01.12-.02.19-.03h.12c.1 0 .21.03.31.05.01 0 .08.02.1.02.03 0 .06.02.08.03.04.01.21.1.22.1.05.03.1.07.15.11.02.02.04.05.06.07.02.02.03.04.05.07 0 0 0 .02.01.02.02.04.06.18.07.19.01.06.02.12.03.17v.13c0 .08-.01.17-.03.25 0 .04-.01.09-.02.13 0 .02-.02.1-.03.12-.05.17-.11.33-.18.49-.04.09-.09.18-.13.27l-.04.08c-.03.05-.06.1-.09.14-.12.18-.25.36-.38.52-.07.08-.14.17-.22.25-.04.04-.08.08-.11.12l-.02.02c-.02.02-.05.04-.07.07a5.3 5.3 0 0 1-.52.42c-.09.07-.18.13-.28.19-.16.1-.09.06-.25.14-.45.23-.73.31-1.2.35v.01Zm18.52 14.43c-.01.54-.14 1.08-.23 1.62-.09-.21-.17-.42-.26-.62-.23-.54-.46-1.09-.7-1.62-.16-.71 0-1.47.06-2.18.03-.31.04-.62.05-.94.37 1.25.71 2.5 1.07 3.75l.01-.01Zm-2.7-6.63c-.03-.69-.08-1.37-.14-2.05.51 1.15.94 2.32 1.33 3.52.05.84.04 1.68-.04 2.53-.03.33-.08.67-.1 1-.28-.61-.58-1.22-.89-1.82-.23-1.03-.12-2.12-.16-3.18Zm-.37 2.2c-.36-.64-.75-1.27-1.15-1.88-.3-1.86-.15-3.77-.36-5.63.45.73.87 1.48 1.26 2.26.06 1.04.16 2.08.21 3.11.03.71 0 1.43.04 2.15v-.01Zm-1.66-2.66c-.28-.42-.56-.83-.85-1.25-.19-.28-.39-.56-.58-.84-.07-.29-.11-.6-.15-.89-.09-.63-.12-1.26-.12-1.9 0-.79 0-1.58-.09-2.37-.02-.2-.06-.4-.12-.59.54.7 1.05 1.41 1.53 2.15.35 1.86.2 3.79.38 5.68v.01Zm-3.91-8.31c0-.63-.06-1.26-.16-1.88l-.06-.33c.33.38.65.75.97 1.13.15.18.3.36.44.54.17.56.45 1.08.52 1.67.12.86.09 1.73.1 2.6 0 .58.05 1.16.13 1.74-.57-.79-1.15-1.58-1.74-2.35-.41-.95-.19-2.09-.2-3.1v-.02Zm-2.12-2.45c-.02-.61-.05-1.21-.2-1.8-.01-.05-.03-.1-.04-.16.54.49 1.06 1.01 1.55 1.55.08.34.19.69.25 1.04.11.71.16 1.43.16 2.14 0 .68-.07 1.36 0 2.01l-.51-.63c-.35-.43-.72-.84-1.1-1.24-.1-.41-.11-.85-.11-1.27 0-.55.02-1.09 0-1.63v-.01Zm-2.36-1.91c-.06-.65-.22-1.28-.39-1.91.64.37 1.25.81 1.83 1.28l.06.12c.12.24.21.51.27.77.15.59.16 1.21.18 1.81.02.73-.06 1.5.01 2.24-.6-.6-1.23-1.17-1.85-1.75-.17-.83-.03-1.72-.12-2.56h.01Zm-1.47.1c-.29-.21-.66-.35-1.02-.41.02-.57.1-1.14 0-1.7-.04-.28-.14-.58-.2-.87.53.14 1.05.35 1.54.58l.24.12c.24.8.44 1.61.51 2.45.05.62 0 1.25.04 1.86-.11-.1-.21-.2-.32-.3.03-.66-.19-1.28-.81-1.72l.02-.01Zm-4.64.28h-.02s-.02-.01-.03-.03c0 0-.08-.07-.08-.08-.16-.19-.25-.44-.28-.7-.07-.5.11-1 .41-1.42.66.63 1.41 1.14 2.13 1.7-.19.06-.38.13-.56.2-.25.1-.51.2-.77.28-.14.05-.16.05-.28.07-.06.01-.12.02-.17.03h-.14c-.04 0-.09 0-.13-.02.06 0-.07-.03-.08-.03Zm.5-2.79c.13-.11.28-.22.42-.31.04.25.05.5.07.75-.17-.14-.33-.29-.49-.44Zm.92.79c-.03-.43-.05-.87-.12-1.29.03-.01.06-.03.1-.04.5-.2 1.06-.12 1.61-.02.04.29.13.59.19.87.12.58.04 1.18.02 1.77h-.11c-.54-.45-1.12-.85-1.68-1.28l-.01-.01Zm3.07 9.19c-.81-.49-1.65-.92-2.5-1.35.83-.33 1.6-.9 2.19-1.58.43-.49.87-1.2 1.1-1.93 1.1 1.04 2.24 2.04 3.25 3.17 1.22 1.36 2.3 2.88 3.37 4.36 1.06 1.49 2.12 2.99 3.07 4.55.91 1.5 1.68 3.1 2.39 4.7.82 1.87 1.56 3.77 2.32 5.67.4.98.8 1.95 1.15 2.94.06.17.12.34.18.52.06-.17.12-.34.18-.52.36-.99.76-1.96 1.15-2.94.76-1.89 1.5-3.8 2.32-5.67.71-1.61 1.48-3.2 2.39-4.7.95-1.56 2.01-3.07 3.07-4.55 1.07-1.49 2.15-3 3.37-4.36 1.01-1.13 2.14-2.13 3.24-3.17.23.74.67 1.45 1.1 1.93.6.67 1.36 1.25 2.19 1.58-.84.43-1.69.86-2.5 1.35-1.37.83-2.79 1.61-3.68 2.93-.06.02-.12.05-.17.09-1.82 1.39-3.35 3.16-4.68 5.01-1.36 1.9-2.54 3.94-3.58 6.03-.74 1.49-1.33 3.03-1.77 4.64-.46 1.69-.81 3.4-1.19 5.1-.38 1.7-.84 3.37-1.39 5.02-.02.07-.04.14-.07.21-.02-.07-.04-.14-.07-.21-.54-1.66-1.01-3.32-1.39-5.02-.38-1.7-.73-3.41-1.19-5.1-.44-1.61-1.02-3.15-1.77-4.64a45.798 45.798 0 0 0-3.58-6.03c-1.33-1.86-2.86-3.63-4.68-5.01a.947.947 0 0 0-.17-.09c-.9-1.32-2.31-2.1-3.68-2.93h.03Zm-5.06 4.36c1.94 1.33 3.86 2.92 6.1 3.72 2.46.88 3.71-.91 3.47-2.97.47.45.93.92 1.36 1.41-.38 1.35-1.5 2.31-2.84 2.68-1.34.37-2.81.19-4.13-.14-1.28-.32-2.6-.84-3.68-1.62-1.16-.84-1.94-2.09-2.6-3.34-.35-.66-.67-1.33-1.01-1.99 1.12.72 2.22 1.49 3.32 2.24l.01.01Zm-4.02-2.68c1.23 2.21 2.08 4.76 4.26 6.24 1.07.72 2.33 1.2 3.58 1.53 1.31.34 2.73.49 4.07.22 1.53-.31 2.83-1.33 3.35-2.79.33.39.64.79.95 1.2-.2 1.39-1.54 2.23-2.71 2.84-.67.35-1.38.66-2.11.85-.67.17-1.42.27-2.06-.04h-.01c-1.85-1.31-3.87-2.39-6.04-3.06-.37-.11-.74-.21-1.11-.3-.53-.38-.89-1.07-1.16-1.61-.46-.93-.86-1.91-1.23-2.88-.37-.98-.74-1.95-1.24-2.88-.05-.1-.1-.19-.16-.29.55.3 1.1.63 1.63.96l-.01.01Zm-3.67-1.96c.52.23 1.03.47 1.53.73.23.34.42.71.61 1.08.54 1.06.9 2.2 1.34 3.3.34.85.7 1.71 1.15 2.51.18.32.38.64.64.92-.49-.1-.99-.18-1.49-.24-.52-.69-.8-1.55-1.07-2.36-.36-1.1-.69-2.18-1.19-3.23-.29-.61-.62-1.2-.98-1.78-.2-.33-.42-.66-.65-.97.04.02.08.03.12.05l-.01-.01Zm-4.08-1.21c.72.09 1.43.25 2.12.47.25.21.51.41.75.63.15.13.22.19.32.33.21.27.4.55.59.83.4.59.75 1.21 1.06 1.85.52 1.07.86 2.19 1.23 3.32.22.66.45 1.35.8 1.97-.81-.07-1.63-.1-2.45-.09-.39-.39-.67-.93-.88-1.42-.36-.84-.56-1.72-.86-2.58-.47-1.35-1.19-2.59-1.88-3.84-.25-.46-.56-1.05-.96-1.49.05 0 .1 0 .15.02h.01Zm-.62-.06c.23.21.43.47.59.71.3.43.55.9.8 1.36.69 1.21 1.36 2.46 1.77 3.79.28.91.53 1.83.96 2.69.15.29.32.58.53.82-.16 0-.31 0-.47.01a.38.38 0 0 0-.09-.13c-.52-.5-.92-1.11-1.25-1.75 0-.1-.04-.2-.14-.27-.23-.46-.44-.93-.66-1.39-.43-.89-.8-1.81-1.26-2.7-.58-1.12-1.37-2.45-2.48-3.16.57-.04 1.13-.03 1.7 0v.02Zm-3.55.23h.07c.86-.05 1.6.46 2.16 1.07.67.74 1.17 1.63 1.61 2.52.43.87.81 1.77 1.22 2.64.02.04.04.09.06.13-.37-.14-.75-.23-1.17-.27-.87-.09-1.74 0-2.59.17-.05.01-.11.02-.16.04-.14-.24-.25-.49-.36-.74.03-.1 0-.22-.11-.27-.09-.23-.17-.47-.25-.71-.24-.69-.52-1.36-.86-2.01-.31-.59-.65-1.14-1.18-1.56-.21-.17-.43-.3-.66-.43.74-.24 1.48-.44 2.23-.58h-.01Zm-2.76.76c.3.16.59.32.87.52.56.41.9 1.02 1.21 1.62.32.62.57 1.27.8 1.92.04.12.08.23.12.35-.44-.09-.87-.14-1.33-.14-.48 0-.96.06-1.44.13-.23-.3-.33-.67-.44-1.03-.12-.43-.26-.84-.43-1.25-.16-.39-.38-.78-.7-1.06-.12-.11-.31-.21-.47-.32.59-.27 1.2-.53 1.81-.75v.01Zm-2.2.93c.08.07.16.13.25.19.17.12.36.23.5.39.17.2.3.43.41.67.15.33.27.67.37 1.01-.46-.05-.9-.2-1.34-.35a.75.75 0 0 0-.16-.05c0-.03-.02-.06-.04-.09-.11-.15-.15-.34-.19-.53-.05-.19-.12-.36-.22-.53-.08-.13-.16-.26-.26-.38.22-.12.45-.23.67-.34l.01.01Zm-1.04.54c.12.16.24.32.33.5.1.21.14.45.22.67-.25-.07-.5-.12-.76-.16-.43-.07-.88-.1-1.32-.09.5-.32 1.01-.63 1.53-.92Zm-2.19 1.36c.68-.05 1.36-.03 2.03.07.97.15 1.86.67 2.85.71.08.29.18.59.34.85-1.09.19-2.16.45-3.27.47-.82.02-1.64 0-2.44-.13-.49-.08-1.04-.21-1.49-.48.63-.52 1.29-1.02 1.98-1.49Zm-2.3 1.76c.41.28.92.44 1.4.55.83.19 1.69.21 2.54.2 1.08 0 2.11-.18 3.16-.38.64-.12 1.28-.23 1.93-.28.65-.05 1.25.04 1.88.17.1.26.22.52.35.77-1.51.38-2.94 1.01-4.41 1.51-1.68.57-3.45.76-5.2.53-1.03-.13-2.22-.13-3.14-.68-.21-.12-.39-.28-.51-.48.63-.68 1.3-1.32 2.01-1.92l-.01.01Zm-2.53 2.5c.57.73 1.62.99 2.5 1.13 1.38.23 2.81.37 4.21.25 1.76-.15 3.37-.8 5.01-1.41 1.64-.61 3.38-1.15 5.15-1 .33.03.64.09.94.2-.72-.02-1.51.2-2.09.36-1.77.49-3.43 1.28-5.19 1.78-.9.25-1.82.46-2.74.66-.88.19-1.75.35-2.64.39-.91.05-1.83-.01-2.73-.19-.86-.17-1.64-.57-2.38-1.02-.21-.13-.42-.27-.63-.41.2-.25.41-.5.62-.74h-.03Zm-.91 1.11.11-.14c.47.31.94.61 1.44.87.74.39 1.52.61 2.35.72 1.78.25 3.52-.02 5.26-.4.87-.19 1.74-.4 2.59-.64.88-.25 1.73-.58 2.58-.91.86-.33 1.72-.63 2.61-.87.65-.17 1.36-.31 2.03-.25.24.02.48.09.68.21.3.57.64 1.12 1.07 1.61-.52.03-1.04.07-1.55.11-3.54.3-7 1.09-10.43 1.95-1.2.3-2.41.59-3.65.74-1.09.13-2.24.11-3.24-.25-1.02-.38-1.78-1.13-2.3-2.12.15-.21.3-.42.46-.63h-.01Zm.25 3.46s-.02.01-.03.02v-.02c0-.02 0-.03-.01-.05.01.02.03.03.05.05h-.01Zm-.52-.68h-.03c0-.01 0-.03-.01-.04.01.01.03.02.04.04Zm-1.08-.69c.49 1.27.86 2.58 1.14 3.91.36 1.66.58 3.34.93 5 .29 1.42.74 2.81 1.36 4.11-.34-.36-.68-.73-1.01-1.11-.34-.39-.67-.78-.98-1.19-.19-.61-.27-1.26-.32-1.9-.08-.93-.13-1.86-.27-2.78-.26-1.81-.76-3.58-1.2-5.36.11-.23.23-.46.35-.68Zm-.55 1.1c.41 1.65.85 3.3 1.1 4.98.14.92.19 1.85.27 2.78.04.42.08.85.16 1.27-.26-.35-.51-.71-.75-1.08-.91-1.41-1.66-3.01-1.87-4.68.25-1.13.61-2.23 1.08-3.27h.01Zm-1.39 5.24c.35 1.02.85 2.01 1.42 2.92.66 1.08 1.45 2.08 2.27 3.03.86 1 1.8 1.89 2.77 2.77.06.05.11.08.17.09.16.22.32.43.49.64-.49-.28-1-.54-1.5-.8-.99-.53-1.9-1.14-2.74-1.88-1.13-1.01-2.08-2.19-2.94-3.44-.08-1.11-.06-2.23.05-3.34l.01.01Zm.5 6.88c-.24-.97-.41-1.96-.51-2.97.76 1.07 1.6 2.07 2.57 2.97.79.73 1.65 1.34 2.59 1.86.83.46 1.68.87 2.48 1.37.02.03.05.05.07.08-.49-.13-1-.17-1.52-.2-1.03-.07-1.95-.32-2.84-.86-.76-.46-1.47-1.04-2.15-1.6-.24-.2-.48-.41-.69-.65Zm.21.77c.66.6 1.4 1.15 2.14 1.64.83.56 1.74.94 2.75 1.06.98.11 2.04.03 2.88.62.05.03.09.04.14.04.63.55 1.31 1.04 2.03 1.48-.44.05-.86.13-1.31.16-1.11.07-2.29.13-3.37-.16-.95-.25-1.93-.74-2.73-1.31-.63-.45-1.17-1.01-1.82-1.42-.27-.68-.5-1.38-.71-2.09v-.02Zm1.49 3.88c-.21-.43-.41-.86-.59-1.3.55.4 1.04.9 1.6 1.28.79.54 1.72.98 2.64 1.24 1 .28 2.07.24 3.09.2.46-.02.92-.05 1.37-.12.23-.04.49-.09.74-.1.6.34 1.21.64 1.85.9-2.1.61-4.38.59-6.48 0-.91-.26-1.8-.62-2.64-1.05-.55-.28-1.11-.62-1.58-1.04v-.01Zm2.29 3.68c-.55-.71-1.05-1.45-1.5-2.21l.27.15c.9.5 1.88.88 2.87 1.17 2.57.74 5.38.69 7.88-.27l.45.15c.05.03.1.05.17.06h.02c.28.09.57.17.86.25l.84.21c-.17.1-.33.23-.49.36-.4.34-.82.63-1.27.9-1.05.61-2.23.98-3.42 1.15-1.17.17-2.33.09-3.5.04-.48-.02-1.11-.01-1.64-.17a26.41 26.41 0 0 1-1.53-1.8l-.01.01Zm2 2.29c.32.04.63.05.91.06 1.13.06 2.24.13 3.37.02 1.2-.12 2.37-.44 3.46-.97.51-.25 1.01-.54 1.46-.88.4-.3.78-.78 1.3-.84.04 0 .07-.02.09-.03.92.17 1.85.29 2.79.34a.21.21 0 0 0-.06.04c-.5.3-.99.62-1.47.95-1.04.7-2.08 1.39-3.23 1.9-2.1.93-4.47 1.38-6.76 1.13-.65-.55-1.28-1.12-1.87-1.72h.01Zm2.27 2.05c2.04.14 4.11-.25 6.01-1 1.12-.44 2.14-1.04 3.14-1.71.52-.35 1.02-.7 1.56-1.03.32-.2.65-.45 1.01-.58.37.01.74.02 1.11.01-.13.09-.25.19-.38.28-.58.43-1.16.87-1.75 1.3-1.09.8-2.21 1.56-3.41 2.17-1.09.55-2.23 1-3.41 1.32-.77.21-1.58.34-2.38.34-.51-.35-1.01-.72-1.5-1.11v.01Zm2.56 1.8c.42-.05.83-.13 1.23-.23 1.23-.29 2.41-.75 3.54-1.3 1.22-.59 2.36-1.33 3.46-2.12.59-.42 1.17-.86 1.75-1.3.49-.37.96-.76 1.49-1.06-.57.5-1.06 1.07-1.55 1.65-.72.87-1.45 1.69-2.29 2.44-1.53 1.36-3.28 2.47-5.19 3.2-.85-.37-1.67-.8-2.45-1.28h.01Zm3.72 1.79c-.21-.07-.41-.15-.62-.23-.02-.02-.04-.05-.06-.08-.03-.04-.06-.07-.1-.08 1.75-.72 3.36-1.77 4.79-3.01.82-.72 1.55-1.5 2.24-2.34.67-.81 1.35-1.63 2.21-2.25.49-.05.98-.11 1.47-.18-.41.34-.78.74-1.1 1.12-.82.97-1.5 2.05-2.37 2.98-.62.66-1.3 1.25-1.97 1.85-.6.54-1.2 1.1-1.89 1.53-.55.34-1.17.51-1.79.62-.22.04-.53.09-.81.08v-.01Zm.99.31c.3-.05.59-.13.87-.21.75-.22 1.39-.71 1.98-1.19.66-.55 1.3-1.14 1.94-1.72.58-.54 1.14-1.09 1.64-1.71.37-.46.71-.94 1.06-1.41.68-.91 1.47-1.97 2.54-2.44.45-.09.9-.2 1.34-.32-.63.6-1.19 1.29-1.72 1.99-.82 1.08-1.64 2.15-2.52 3.18-.84.98-1.71 1.95-2.73 2.75a8.5 8.5 0 0 1-2.74 1.45c-.56-.09-1.12-.21-1.67-.37h.01Zm2.65.3c.58-.26 1.14-.58 1.66-.96 1.04-.75 1.92-1.71 2.76-2.67.91-1.04 1.76-2.11 2.59-3.22.71-.95 1.44-1.89 2.35-2.65.43-.13.86-.27 1.28-.42-.2.3-.4.62-.58.94-.38.65-.8 1.26-1.24 1.87-.87 1.18-1.85 2.28-2.84 3.36-.94 1.03-1.98 1.89-3.2 2.57-.88.49-1.82.88-2.78 1.19v-.01Zm7.13-1.32-.51.24c-.03 0-.06.02-.09.03-.02 0-.04.02-.05.03-.47.21-.94.4-1.42.57-1.1.39-2.31.62-3.48.67 1.8-.75 3.45-1.81 4.8-3.28 1.02-1.11 2.03-2.23 2.93-3.43.45-.59.87-1.21 1.26-1.85.2-.33.37-.67.58-.99.22-.35.48-.68.73-1.01.01-.02.03-.04.04-.06l.78-.33c-.5.56-.83 1.28-1.12 1.95-.22.5-.41 1.01-.62 1.51-.19.45-.41.88-.62 1.33-.45.98-.89 1.97-1.48 2.87-.45.69-1 1.34-1.71 1.75h-.02Zm2.75-1.39c-.5.26-1.01.53-1.52.78.94-1.01 1.56-2.41 2.09-3.58.42-.93.84-1.85 1.23-2.79.41-1.01.89-2.17 1.86-2.79.03-.02.04-.04.05-.06.04-.02.09-.04.13-.06-.03.06-.06.11-.09.17-.26.51-.51 1.04-.76 1.56-.47.98-.88 2-1.14 3.06-.25 1-.44 2.24-.94 3.24-.3.16-.6.32-.9.47h-.01Zm2.1-1.11c-.26.14-.52.28-.79.42.34-.83.52-1.77.71-2.57.25-1.04.6-2.03 1.04-3 .25-.56.54-1.1.8-1.66.13-.28.27-.57.45-.82.53-.26 1.05-.52 1.57-.8-1.04 1.43-1.56 3.16-2.14 4.83-.38 1.1-.79 2.19-1.39 3.19-.07.12-.16.26-.25.4v.01Zm2.25-1.24c-.51.29-1.02.57-1.53.85.42-.74.75-1.53 1.04-2.33.8-2.17 1.34-4.51 2.99-6.23.74-.41 1.47-.82 2.2-1.24-.08.13-.15.26-.22.39-.44.81-.75 1.68-1.09 2.53-.51 1.27-1.22 2.47-1.84 3.69-.4.8-.84 1.73-1.54 2.33l-.01.01Zm.82-.47-.04.02c.29-.39.53-.83.76-1.26.68-1.29 1.38-2.59 1.98-3.92.35-.76.6-1.56.96-2.32.18-.39.43-.92.76-1.32.43-.25.87-.49 1.3-.74.74-.41 1.5-.81 2.27-1.16-.54.54-1.02 1.16-1.46 1.77-.91 1.28-1.71 2.64-2.58 3.94-.92 1.37-1.89 2.7-2.98 3.94-.31.35-.64.7-.97 1.03v.02Zm2.14-1.24c1.01-1.22 1.93-2.52 2.8-3.85.84-1.28 1.62-2.61 2.55-3.84.82-1.09 1.81-2.12 3.1-2.64.66-.27 1.37-.33 2.08-.35l.39.06c-.43.1-.86.25-1.23.41-1.24.53-2.37 1.33-3.33 2.28-1.13 1.12-2.05 2.42-2.89 3.76-.8 1.27-1.59 2.52-2.58 3.64-.3.17-.59.35-.89.52v.01Zm9.36-5.53c-.65.37-1.29.75-1.94 1.13.05-.09.1-.19.15-.29.32-.62.81-1.15 1.35-1.59.5-.41 1.12-.78 1.78-.82.3-.02.59.05.85.19-.79.37-1.53.99-2.19 1.37v.01Zm4.13-1.58c-.55-.2-1.09-.13-1.62.07-.21-.14-.45-.25-.71-.3-.62-.14-1.24.08-1.76.39-.67.39-1.24.92-1.7 1.54-.3.4-.5.87-.75 1.3l-1.86 1.11c1-1.56 1.99-3.15 3.44-4.32.85-.68 1.92-1.21 3.02-1.26 1.1-.05 1.87.67 2.23 1.6-.09-.05-.18-.09-.28-.13h-.01Zm-1.43-1.85c-1.14-.19-2.36.34-3.29.95-2 1.31-3.17 3.51-4.48 5.48-.67.4-1.35.8-2.02 1.2-.21.12-.41.24-.62.37.59-.73 1.12-1.5 1.62-2.3.83-1.32 1.65-2.62 2.68-3.79.96-1.08 2.09-1.99 3.37-2.65.78-.39 1.92-.88 2.85-.67.77.81 1.55 1.6 2.28 2.44.27.3.52.62.77.94 0 .47-.11.94-.25 1.39-.04-.06-.08-.13-.12-.19-.14-.28-.31-.54-.52-.76-.26-1.18-1.01-2.21-2.27-2.42v.01Zm2.1 15.2c.01.36 0 .71-.01 1.06-.02.52-.09 1.07-.29 1.56-.12.29-.26.58-.4.85-.37.72-.8 1.41-1.33 2.02-.2.24-.47.53-.77.72 1.1-2 2.07-4.07 2.8-6.22v.01ZM46.69 96.7c.96-1.42 1.9-2.89 2.76-4.41.39-.15.75-.46 1.03-.75.6-.61 1.06-1.36 1.47-2.11.42-.77.72-1.51.8-2.39a11.425 11.425 0 0 0-.02-2.13c.49-1.57.84-3.18 1.02-4.83.11-1.02.17-2.05.13-3.08.3 1.05.28 2.22.34 3.29.1 1.82 0 3.61-.4 5.39-.71 3.14-2.2 6.21-4.29 8.67a14.1 14.1 0 0 1-2.56 2.38c-.18.12-.36.25-.54.36.09-.13.18-.25.26-.38v-.01Zm-8.38.63c.29 1.44 1.39 2.77 2.91 2.97 2.02.26 3.6-1.14 4.79-2.66.43-.24.85-.5 1.25-.79-.15.74-.63 1.35-1.14 1.89-.54.58-1.15 1.1-1.83 1.52 0 0-.05.02-.06.04-1.4.83-3 .93-4.51.37-1.34-.5-2.59-1.51-3.08-2.89-.37-1.03-.35-2.37.44-3.21.53-.56 1.3-.62 2.01-.52.37.05.94.18 1.26.48-1.59-.39-2.29 1.51-2.04 2.8Zm-.55-4.62c.11-.05.22-.09.33-.13 0 0 .08-.02.1-.03.06-.01.12-.02.17-.03.1-.02.21-.02.31-.03h.06c.05 0 .1 0 .15.01.1 0 .2.03.3.04.05 0 .1.02.15.03-.13-.03.07.02.09.03.12.04.25.1.37.15.05.02.09.05.13.07-.04-.02.1.06.12.07.11.07.21.15.31.23l.15.12c.02.02.11.1.13.12.17.18.31.37.44.57v.01l.02.04c.03.05.05.1.07.15l.06.15c0 .03.02.05.02.08v.01c.02.09.03.17.04.26v.03c0 .04-.01.09-.02.13.02-.13-.1.15-.05.1-.01.02-.03.04-.04.05 0 0-.02.02-.04.03a.21.21 0 0 1-.06.04c.02-.02-.08.04-.1.05a.667.667 0 0 0-.09-.21c-.12-.6-.8-.9-1.42-1.04-.34-.56-.82-.93-1.46-1.07-.08-.02-.16-.03-.24-.04h.01l-.01.01Zm-2.62 3.34c.32-1.16.99-2.19 1.93-2.91.07-.05.13-.1.2-.15.18 0 .35 0 .53.03.52.07.93.34 1.24.74H39c-.98-.12-1.93.16-2.47 1.04-.18.28-.29.6-.36.92-.49.34-.9.84-1.2 1.39.02-.36.07-.72.17-1.06Zm1.63 2.73c-.02.57-.12 1.14-.14 1.71v.3c-.47-.43-.88-.93-1.17-1.44a4.03 4.03 0 0 1-.48-1.58c.24-.63.64-1.22 1.13-1.64-.05.6.05 1.22.24 1.76.1.31.25.59.42.86v.03Zm1.2 2.94c-.34-.17-.68-.39-1-.65-.07-.64.03-1.28.07-1.94.54.68 1.29 1.22 2.06 1.6.27.13.55.24.83.33 0 .02 0 .03.02.05.28.43.55.91.97 1.2-1.01.04-2.01-.13-2.95-.59Zm6.45-.25c-.93.39-1.91.68-2.9.79-.01 0-.02-.01-.03-.01-.55-.15-.87-.62-1.15-1.08 1.29.3 2.64.13 3.85-.52.06-.03.11-.06.17-.09.53.15 1.08.2 1.63.18-.51.27-1.03.52-1.56.74l-.01-.01Zm1.96-1.11s-.05.04-.07.06c-.54.04-1.09.03-1.61-.08.58-.38 1.1-.85 1.59-1.35.62-.63 1.17-1.38 1.29-2.28 0-.03 0-.06-.01-.08.15-.11.29-.23.43-.35 1.19-1.01 2.21-2.21 3.07-3.51 1.8-2.69 3-5.87 3.37-9.09.16-1.38.09-2.75.02-4.14-.06-1.16-.11-2.45-.66-3.49l-.06-.51v-.06c2.08 4.49 1.66 9.87.06 14.49-.7 2-1.63 3.92-2.79 5.69-1.21 1.86-2.65 3.62-4.62 4.71l-.01-.01Zm4 3.41c-.38.19-.81.26-1.25.11-.69-.24-1.12-.87-1.31-1.59.6-.63 1.44-1.33 2.28-.93.86.41.83 1.73.29 2.41h-.01Zm.53-.37c.29-.76.14-1.71-.54-2.21-.9-.66-1.91.05-2.63.76-.04-.27-.06-.54-.04-.79.06-.06.11-.13.17-.19.77-.49 1.51-1.02 2.22-1.59.22-.08.44-.13.67-.16.65-.07 1.35.21 1.65.81.16.31.19.66.13 1.01-.17.35-.35.69-.54 1.02-.26.44-.63.96-1.07 1.35l-.02-.01Zm2.68 2.71s-.06.01-.1.02c-.57.08-1.21-.28-1.6-.68-.24-.25-.41-.55-.47-.88.21-.6.97-.77 1.55-.65.37.07.64.31.79.65.22.5.07 1.07-.18 1.55l.01-.01Zm.37-.12c.18-.43.27-.9.14-1.36-.15-.51-.48-.85-.99-.99-.56-.16-1.24-.03-1.65.36 0-.03.02-.07.04-.1.45-.39.8-.88 1.11-1.4.55-.29 1.11-.64 1.73-.57.74.09 1 .84.99 1.53-.18.59-.38 1.18-.63 1.73-.17.38-.4.65-.74.8Zm3.47 3.32-.23.03c-.08 0-.15-.02-.23-.03-.65-.12-1.26-.54-1.67-1.09.13-.69.88-1.3 1.49-1.55.13-.05.27-.08.41-.08.14 0 .28.02.42.08.61.24 1.36.85 1.49 1.55-.41.56-1.03.97-1.67 1.09h-.01Zm1.88-1.42c-.27-.69-1.02-1.32-1.66-1.51a1.74 1.74 0 0 0-.9 0c-.64.19-1.39.82-1.66 1.51-.23-.44-.34-.92-.25-1.41.44-.63 1-1.19 1.68-1.55.23-.12.46-.2.69-.25.23.05.46.13.69.25.68.36 1.24.92 1.68 1.55.09.48-.02.97-.25 1.41h-.02Zm.4-2.7c-.25-.56-.44-1.15-.63-1.73 0-.69.25-1.44.99-1.53.62-.07 1.18.28 1.73.57.31.52.67 1.01 1.11 1.4l.03.1c-.41-.39-1.09-.52-1.65-.36-.51.14-.84.49-.99.99-.13.46-.04.93.14 1.36-.33-.15-.56-.41-.73-.8Zm2.8.25c-.38.4-1.03.76-1.6.68-.03 0-.07-.01-.1-.02-.25-.48-.4-1.05-.18-1.55.15-.34.42-.57.79-.65.58-.12 1.34.06 1.55.65-.05.32-.23.63-.47.88l.01.01Zm2.78-1.57c-.45.16-.87.09-1.26-.11-.54-.68-.57-1.99.29-2.41.84-.4 1.68.3 2.28.93-.19.71-.62 1.34-1.31 1.59Zm1.39-1.92c-.72-.71-1.74-1.42-2.63-.76-.68.5-.82 1.44-.54 2.21-.45-.39-.81-.91-1.07-1.35-.2-.33-.37-.68-.54-1.02-.06-.34-.03-.7.13-1.01.3-.6 1-.88 1.65-.81.23.03.45.08.67.16.71.57 1.45 1.11 2.22 1.59.06.06.11.13.17.19.02.26 0 .53-.04.79l-.02.01Zm1.36-1.6c-1.98-1.08-3.41-2.85-4.62-4.71a26.126 26.126 0 0 1-2.79-5.69c-1.61-4.62-2.02-9.99.06-14.49v.06l-.06.51c-.55 1.05-.6 2.33-.66 3.49-.07 1.39-.14 2.75.02 4.14.37 3.22 1.58 6.4 3.38 9.09.86 1.3 1.88 2.5 3.07 3.51.14.12.29.24.43.35-.01.02-.02.05-.01.08.12.9.68 1.65 1.29 2.28.49.5 1.01.97 1.59 1.35-.53.11-1.08.12-1.61.08a.435.435 0 0 0-.07-.06l-.02.01Zm4.86 1.9c-.98-.11-1.97-.4-2.9-.79a18.5 18.5 0 0 1-1.56-.74c.55.02 1.1-.03 1.62-.18.06.03.11.06.17.09 1.21.65 2.56.82 3.85.52-.29.46-.6.93-1.15 1.08-.01 0-.02 0-.04.01l.01.01Zm4.55-1.19c-.32.26-.67.48-1 .65-.94.46-1.94.62-2.95.59.42-.29.7-.77.97-1.2.01-.02.02-.03.02-.05.28-.09.56-.2.83-.33.77-.38 1.52-.92 2.06-1.6.05.66.14 1.31.07 1.94Zm1.51-1.73c-.29.52-.7 1.02-1.17 1.44v-.3c-.02-.57-.11-1.14-.14-1.71v-.02c.17-.27.32-.56.42-.86.18-.55.28-1.17.24-1.76.5.42.89 1.01 1.13 1.64a4.03 4.03 0 0 1-.48 1.58v-.01Zm-1.81-6.35c.07.05.14.09.2.15a5.38 5.38 0 0 1 1.93 2.91c.09.34.15.7.17 1.06-.3-.55-.71-1.05-1.2-1.39-.06-.32-.18-.64-.36-.92-.54-.88-1.49-1.16-2.47-1.04h-.04c.31-.39.72-.66 1.24-.74.18-.02.35-.03.53-.03Zm-3.59 1.88a.95.95 0 0 0-.09.21.805.805 0 0 1-.1-.05c-.02-.01-.04-.03-.06-.04-.01 0-.02-.02-.04-.03 0 0-.03-.03-.04-.05.05.05-.07-.23-.05-.1 0-.04-.02-.09-.02-.13v-.03c0-.09.02-.18.04-.26v-.01c0-.03.02-.05.02-.08l.06-.15c.02-.05.04-.1.07-.15.01-.02.02-.03.02-.04v-.01c.12-.21.27-.4.44-.57.02-.02.11-.1.13-.12.05-.04.1-.09.15-.12.1-.08.21-.16.31-.23.02-.01.15-.09.12-.07.04-.02.09-.05.13-.07.12-.06.24-.11.37-.15.02 0 .23-.07.09-.03l.15-.03c.1-.02.2-.04.3-.04.05 0 .1 0 .15-.01h.05c.1 0 .21.01.31.03.06 0 .12.02.17.03.02 0 .09.03.1.03.11.04.22.08.33.13h.01c-.08.01-.16.03-.24.04-.64.14-1.12.51-1.46 1.07-.62.14-1.3.44-1.42 1.04v-.01Zm-.35 5.43c1.52-.2 2.62-1.53 2.91-2.97.26-1.29-.45-3.19-2.03-2.8.32-.29.89-.42 1.26-.48.72-.1 1.48-.04 2.02.52.79.83.8 2.18.44 3.21-.49 1.38-1.74 2.39-3.08 2.89-1.52.56-3.12.46-4.51-.37-.02-.02-.04-.03-.06-.04-.68-.42-1.29-.94-1.83-1.52-.51-.54-.99-1.15-1.14-1.89.4.29.82.55 1.25.79 1.18 1.52 2.77 2.93 4.79 2.66h-.02Zm-5.47-3.6c.08.12.17.25.26.38l-.54-.36c-.95-.68-1.8-1.49-2.56-2.38-2.09-2.46-3.58-5.52-4.29-8.67-.4-1.79-.5-3.57-.4-5.39.06-1.06.04-2.23.34-3.29-.04 1.03.02 2.06.13 3.08.18 1.65.53 3.26 1.02 4.83 0 .06-.02.12-.02.19-.05.64-.06 1.31 0 1.94.09.88.38 1.62.8 2.39.41.75.87 1.5 1.47 2.11.29.29.63.6 1.03.75.86 1.52 1.79 2.99 2.76 4.41v.01Zm-3.01-4.85c-.3-.2-.56-.48-.77-.72-.52-.61-.96-1.31-1.33-2.02-.15-.28-.28-.56-.4-.85-.2-.49-.26-1.04-.29-1.56-.01-.35-.03-.7-.01-1.06.73 2.15 1.69 4.22 2.8 6.22v-.01Zm2-17.98c-.66-.38-1.4-1-2.19-1.37.26-.14.55-.21.85-.19.66.04 1.28.4 1.78.82.54.44 1.03.97 1.35 1.59.05.1.1.19.15.29-.65-.38-1.29-.76-1.94-1.13v-.01Zm2.41 1.41c-.25-.43-.44-.91-.75-1.3-.47-.61-1.04-1.15-1.7-1.54-.52-.31-1.15-.52-1.76-.39-.27.06-.5.16-.71.3-.52-.2-1.07-.27-1.62-.07-.1.04-.19.08-.28.13.36-.93 1.13-1.65 2.23-1.6 1.1.05 2.17.58 3.02 1.26 1.45 1.17 2.44 2.76 3.44 4.32l-1.86-1.11h-.01Zm4.69 2.79c-.67-.4-1.35-.8-2.02-1.2-1.31-1.97-2.48-4.16-4.48-5.48-.93-.61-2.15-1.14-3.29-.95-1.26.21-2.02 1.23-2.27 2.42-.2.22-.38.48-.52.76-.04.06-.08.13-.12.19-.14-.46-.24-.92-.25-1.39.25-.32.51-.63.77-.94.73-.84 1.51-1.63 2.28-2.44.93-.21 2.07.28 2.85.67 1.29.65 2.42 1.56 3.37 2.65 1.03 1.17 1.85 2.48 2.68 3.79.5.8 1.03 1.57 1.62 2.3-.21-.12-.41-.24-.62-.37v-.01Zm1.37.81c-.99-1.12-1.78-2.37-2.58-3.64-.84-1.34-1.76-2.64-2.89-3.76-.96-.95-2.09-1.75-3.33-2.28-.37-.16-.79-.31-1.23-.41l.39-.06c.71.01 1.42.08 2.08.35 1.29.52 2.28 1.54 3.1 2.64.92 1.23 1.7 2.56 2.55 3.84.87 1.33 1.79 2.63 2.8 3.85-.3-.17-.6-.35-.89-.52v-.01Zm3.03 1.76c-.34-.33-.66-.68-.97-1.03-1.09-1.24-2.06-2.57-2.98-3.94-.87-1.31-1.67-2.66-2.58-3.94-.44-.61-.91-1.23-1.46-1.77.77.35 1.52.75 2.26 1.16.44.24.87.49 1.3.74.33.4.58.93.76 1.32.36.76.61 1.56.96 2.32.61 1.33 1.3 2.62 1.99 3.92.22.43.47.86.76 1.26-.01 0-.02-.01-.04-.02v-.02Zm.82.47c-.7-.6-1.14-1.53-1.54-2.33-.62-1.22-1.33-2.42-1.84-3.69-.34-.85-.65-1.72-1.09-2.53-.07-.13-.14-.26-.22-.39.73.42 1.46.83 2.2 1.24 1.65 1.72 2.19 4.06 2.99 6.23.29.79.62 1.59 1.04 2.33-.51-.28-1.02-.57-1.53-.85l-.01-.01Zm2.25 1.24c-.09-.14-.17-.27-.25-.4-.6-1-1.01-2.1-1.39-3.19-.58-1.67-1.1-3.4-2.14-4.83.52.27 1.04.54 1.57.8.18.25.32.54.45.82.26.56.55 1.1.8 1.66.44.97.79 1.96 1.04 3 .19.8.37 1.74.71 2.57-.26-.14-.53-.28-.79-.42v-.01Zm2.1 1.11c-.3-.15-.6-.31-.9-.47-.5-1-.69-2.24-.94-3.24-.27-1.06-.67-2.08-1.14-3.06-.25-.52-.5-1.05-.76-1.56-.03-.06-.06-.11-.09-.17.04.02.09.04.13.06 0 .02.03.04.05.06.96.61 1.44 1.77 1.86 2.79.38.94.8 1.87 1.23 2.79.53 1.17 1.15 2.57 2.09 3.58-.51-.26-1.02-.52-1.52-.78h-.01Zm4.82 2.25c-.48-.17-.95-.36-1.42-.57a.219.219 0 0 0-.05-.03c-.03 0-.06-.02-.08-.03-.17-.08-.34-.16-.52-.24-.71-.41-1.27-1.06-1.71-1.75-.59-.9-1.03-1.89-1.48-2.87-.2-.44-.43-.88-.62-1.33-.21-.5-.4-1.01-.62-1.51-.29-.67-.63-1.39-1.12-1.95l.78.33c0 .02.02.04.04.06.24.33.5.66.73 1.01.21.32.38.66.58.99.39.64.81 1.26 1.26 1.85.91 1.2 1.92 2.32 2.93 3.43 1.35 1.46 3 2.53 4.8 3.28-1.17-.05-2.38-.27-3.48-.67h-.02Zm2.27-.74c-1.22-.67-2.26-1.54-3.2-2.57-.99-1.08-1.97-2.18-2.84-3.36-.44-.6-.86-1.22-1.24-1.87-.19-.32-.38-.63-.58-.94.42.15.85.29 1.28.42.91.75 1.65 1.7 2.35 2.65.83 1.11 1.68 2.17 2.59 3.22.84.96 1.72 1.92 2.76 2.67.53.38 1.08.7 1.67.96-.96-.31-1.9-.7-2.78-1.19l-.01.01Zm3.76 1.25c-.99-.31-1.91-.81-2.74-1.45-1.02-.8-1.89-1.77-2.73-2.75-.88-1.03-1.7-2.1-2.52-3.18-.53-.7-1.08-1.38-1.71-1.99.45.12.89.23 1.34.32 1.07.47 1.86 1.53 2.54 2.44.35.47.69.95 1.06 1.41.5.61 1.06 1.17 1.64 1.71.64.58 1.27 1.17 1.94 1.72.59.49 1.23.97 1.98 1.19.28.08.58.16.87.21-.55.15-1.11.28-1.67.37Zm3.34-.98s-.04.05-.06.08c-.2.08-.41.16-.62.23-.29.01-.6-.04-.81-.08-.63-.11-1.25-.27-1.79-.62-.69-.43-1.29-.99-1.89-1.53-.67-.6-1.36-1.19-1.97-1.85-.87-.93-1.54-2.01-2.37-2.98-.33-.38-.69-.79-1.1-1.12.49.08.98.14 1.47.18.86.62 1.54 1.44 2.21 2.25.7.84 1.42 1.62 2.24 2.34 1.43 1.25 3.04 2.29 4.79 3.01-.04.01-.07.04-.1.08v.01Zm.6-.2c-1.91-.72-3.66-1.84-5.19-3.2-.84-.75-1.57-1.57-2.29-2.44-.48-.58-.98-1.16-1.55-1.65.53.3 1 .69 1.49 1.06.58.44 1.16.87 1.75 1.3 1.1.79 2.24 1.53 3.46 2.12 1.13.55 2.32 1 3.54 1.3.4.1.82.17 1.23.23-.78.48-1.6.91-2.45 1.28h.01Zm3.51-1.97c-.8 0-1.61-.13-2.38-.34-1.18-.32-2.32-.77-3.41-1.32-1.21-.61-2.32-1.37-3.41-2.17-.58-.43-1.16-.87-1.75-1.3-.13-.09-.25-.19-.38-.28.37 0 .74 0 1.11-.01.36.13.69.38 1.01.58.53.32 1.04.68 1.56 1.03.99.67 2.02 1.27 3.14 1.71 1.9.75 3.96 1.14 6.01 1-.48.39-.98.76-1.5 1.11v-.01Zm1.9-1.44c-2.29.25-4.66-.2-6.76-1.13-1.15-.51-2.19-1.2-3.23-1.9-.48-.33-.97-.65-1.47-.95a.21.21 0 0 1-.06-.04c.94-.06 1.87-.17 2.79-.34.02.02.05.03.09.03.53.06.9.54 1.3.84.46.34.95.63 1.46.88 1.09.53 2.26.85 3.46.97 1.13.11 2.24.04 3.37-.02.28-.02.6-.03.91-.06-.59.6-1.22 1.18-1.87 1.72h.01Zm3.87-4.02c-.48.62-.99 1.22-1.52 1.8-.53.15-1.16.15-1.64.17-1.17.05-2.33.13-3.5-.04-1.19-.17-2.37-.54-3.42-1.15-.45-.26-.87-.56-1.27-.9a4.1 4.1 0 0 0-.49-.36c.28-.06.56-.13.84-.21.29-.08.57-.16.86-.25h.02c.07 0 .12-.03.17-.06l.45-.15c2.5.95 5.32 1.01 7.88.27.99-.29 1.96-.67 2.87-1.17l.27-.15c-.45.76-.95 1.5-1.5 2.21l-.02-.01Zm2.29-3.68c-.47.42-1.03.76-1.58 1.04-.84.43-1.73.79-2.64 1.05-2.1.6-4.38.62-6.48 0 .63-.26 1.25-.56 1.85-.9.25.01.51.07.74.1.45.07.91.11 1.37.12 1.03.03 2.1.08 3.09-.2.92-.26 1.85-.7 2.64-1.24.56-.38 1.05-.88 1.6-1.28-.18.44-.38.88-.59 1.3v.01Zm.79-1.78c-.65.41-1.19.98-1.82 1.42-.8.57-1.78 1.06-2.73 1.31-1.08.29-2.27.23-3.37.16-.44-.03-.87-.1-1.31-.16.72-.43 1.4-.92 2.03-1.48.04 0 .09 0 .14-.04.85-.59 1.91-.51 2.88-.62 1-.11 1.91-.5 2.74-1.06.74-.49 1.48-1.04 2.14-1.64-.2.71-.44 1.41-.71 2.09l.01.02Zm.91-2.86c-.21.23-.45.45-.69.65-.68.56-1.4 1.14-2.15 1.6-.89.54-1.81.79-2.84.86-.51.03-1.03.07-1.52.2.02-.03.05-.05.07-.08.8-.51 1.65-.92 2.48-1.37.94-.52 1.8-1.13 2.59-1.86.97-.89 1.81-1.9 2.57-2.97-.1 1-.27 2-.51 2.97Zm.55-3.54c-.85 1.25-1.8 2.43-2.94 3.44-.84.75-1.75 1.35-2.74 1.88-.5.27-1 .53-1.5.8.17-.21.33-.42.49-.64.06-.01.11-.04.17-.09.98-.88 1.91-1.78 2.77-2.77.83-.95 1.61-1.96 2.28-3.03.57-.92 1.07-1.9 1.41-2.92.11 1.11.13 2.23.05 3.34l.01-.01Z"></path><path fill="#3CA9FF" d="M104.06 64.32c-.73.18-1.43.12-2.11-.22-.66-.33-1.28-.8-1.86-1.25-1.23-.95-2.37-2-3.61-2.93-1.74-1.32-3.77-2.34-5.94-2.71-2.19-.37-4.48.06-6.06 1.71-.88.92-1.46 2.11-1.8 3.34-.3 1.1-.46 2.25-.3 3.38.56 4.28 4.81 6.66 8.78 6.97 2.14.17 4.38-.17 6.31-1.16 2.86-1.48 4.87-4.04 6.88-6.47.03-.04.06-.08.07-.12.12-.25-.02-.62-.37-.54h.01Zm-8.45-4.1c1.42 1.04 2.71 2.25 4.11 3.31.39.29.79.6 1.21.87-.17-.02-.35-.04-.53-.04-.5-.01-.99.06-1.47.19a.236.236 0 0 0-.09-.08c-.79-.36-1.45-1.07-2.01-1.72-.56-.65-1.06-1.36-1.58-2.04-.44-.58-.91-1.13-1.45-1.6.63.33 1.24.7 1.8 1.11h.01Zm-9.44-1.67c.9-.5 1.93-.74 2.97-.71 1 .02 2.01.22 2.97.55.41.26.82.54 1.2.84.72.57 1.27 1.25 1.81 1.98.53.72 1.06 1.45 1.67 2.1.49.52 1 1.04 1.62 1.39-.09.03-.18.06-.26.09-.68.25-1.33.56-1.98.87-.42.04-.83-.26-1.14-.51-.43-.35-.82-.76-1.18-1.18-.7-.82-1.35-1.68-2.1-2.46-.93-.96-1.99-1.85-3.26-2.32-.61-.23-1.25-.34-1.89-.41-.18-.06-.36-.11-.54-.17.03-.02.07-.04.1-.06h.01Zm8.75 7.71c-.07.03-.13.06-.2.09.03-.02.05-.04.06-.07.05 0 .09-.02.14-.02Zm-10.97-5.21c.16-.33.35-.66.57-.97.02.01.05.02.08.03.28.07.56.16.83.26-.13.33-.28.66-.48.95 0 .01-.02.03-.02.05-.32-.13-.65-.22-1.01-.25 0-.02.02-.04.03-.06v-.01Zm3.08 6.88c-.17-.2-.38-.35-.56-.53.12-.12.24-.25.34-.39.04-.06.09-.13.13-.2.09.05.18.12.25.15l.48.24c.28.14.54.36.83.47-.23.38-.53.72-.89.96-.22-.22-.39-.47-.58-.71v.01Zm.22.92c-.29.14-.61.22-.96.22h-.2c-.16-.37-.33-.73-.51-1.08.2-.09.39-.2.57-.32.21.2.43.36.61.59.16.21.31.41.49.6v-.01Zm.48-2.07c-.19-.09-.39-.19-.58-.29 0 0-.02-.01-.03-.02.12-.25.2-.52.25-.79.23.02.46.06.68.11.35.08.66.28 1.03.21h.02c-.07.46-.2.9-.4 1.32-.34-.12-.64-.38-.97-.54Zm1.29-1.17c-.33.06-.68-.17-1-.23-.2-.04-.4-.07-.6-.09.02-.3 0-.59-.07-.89v-.02c.55-.09 1.18.08 1.73.08.07.38.09.78.07 1.17-.03-.02-.07-.02-.12-.01l-.01-.01Zm-1.79-1.62c-.05-.15-.11-.3-.17-.45.46-.24.99-.32 1.46-.54.18.31.33.65.44 1.01 0 .02 0 .04.01.05-.57 0-1.17-.16-1.74-.07Zm-.35-.81c-.17-.29-.36-.57-.59-.82.31-.31.73-.5 1.07-.78.36.32.68.67.94 1.07-.46.21-.97.3-1.42.53Zm-.87-1.11c-.22-.2-.46-.37-.72-.52.21-.32.38-.66.51-1.01.19.09.37.19.55.29.24.15.47.31.69.48-.34.26-.73.46-1.04.76h.01Zm-2.36 5.16c-.06-.13-.12-.26-.17-.39a.473.473 0 0 0-.07-.12c-.07-.22-.13-.45-.18-.68.24.23.58.43.89.43.44 0 .8-.04 1.17-.32.33-.26.54-.63.6-1.05.05-.41-.06-.84-.32-1.16-.23-.29-.66-.6-1.05-.6-.44 0-.8.04-1.17.32-.08.06-.15.13-.21.2.07-.68.24-1.35.47-1.99 1.43-.02 2.68 1.22 2.97 2.58.14.68.1 1.43-.31 2.02-.54.78-1.51 1.28-2.42.81a.302.302 0 0 0-.2-.04v-.01Zm.88 1.25c-.11-.09-.2-.19-.29-.29.32.05.65.02.96-.06.14.29.29.58.42.88-.4-.09-.79-.27-1.09-.52v-.01Zm5.38-3.37c-.09-2.76-2.34-4.91-4.87-5.66l.21-.21c.07-.03.14-.05.22-.07.89.25 1.8.51 2.59.99.91.55 1.62 1.36 2.19 2.24.56.85.96 1.81 1.04 2.84.08 1.14-.2 2.18-.9 3.09-.02.03-.04.06-.05.09-.23.21-.42.47-.61.73v.02c-.02.01-.03.03-.05.05-.03.02-.05.04-.08.06-1.02.58-2.45 1.08-3.55.55 2.54.15 3.96-2.46 3.88-4.71l-.02-.01Zm9.02 4.51c-1.45 1.11-3.09 1.86-4.9 2.13-.46.07-.93.11-1.39.13 1.56-1.08 2.82-2.51 4.27-3.73.84-.7 1.73-1.34 2.74-1.77.53-.22 1.11-.44 1.69-.47.41-.02.81.02 1.22.05-1.1 1.32-2.26 2.61-3.63 3.65v.01Zm3.95-4.04c-.53-.03-1.06-.1-1.59-.06-.55.04-1.09.21-1.6.42-1.05.43-2 1.05-2.87 1.77-1.66 1.38-3.08 3.06-4.93 4.19-1.36-.03-2.73-.3-3.99-.81-.47-.19-.93-.42-1.38-.68.95.17 2-.12 2.83-.54.67-.34 1.28-.77 1.9-1.18.72-.47 1.48-.89 2.25-1.28.76-.38 1.53-.74 2.3-1.1.76-.36 1.52-.75 2.31-1.05.81-.31 1.68-.56 2.56-.46.51.06 1.01.16 1.51.22.34.11.68.16 1.03.17-.11.13-.22.26-.33.4v-.01Z"></path></svg>